<svg width="309" height="95" viewBox="0 0 309 95" fill="none" xmlns="http://www.w3.org/2000/svg">
<path d="M50.3135 16.9944L61.3527 8.12778L59.7605 6.12222L57.1068 8.12778C53.5686 2.70926 48.4028 0 41.6094 0C37.0098 0 32.9054 1.37222 29.2964 4.11667C25.4044 7.07223 23.4584 10.7667 23.4584 15.2C23.4584 20.8296 25.6521 24.8759 30.0395 27.3389C34.4269 29.6611 41.1849 32.0889 50.3135 34.6222L47.6598 37.8944C43.2016 36.6982 39.345 35.4667 36.0898 34.2C32.8347 32.863 30.0749 31.5259 27.8104 30.1889C23.2815 27.5852 21.017 23.5037 21.017 17.9444C21.017 17.8037 21.017 17.3463 21.017 16.5722C21.0878 15.7278 21.1585 14.5667 21.2293 13.0889H18.8941C17.9741 16.3259 17.5142 19.563 17.5142 22.8C17.5142 29.5556 19.531 34.3407 23.5645 37.1556C27.8104 40.0407 33.9669 42.6444 42.034 44.9667L33.33 55.8389C31.7024 55.6278 30.3579 55.5222 29.2964 55.5222C20.3094 55.5222 13.7637 57.7389 9.65933 62.1722C3.21978 68.8574 0 74.2759 0 78.4278C0 80.8907 0.636879 82.8963 1.91064 84.4444C3.25516 86.1333 5.1658 86.9778 7.64255 86.9778C10.3316 86.9778 13.1976 85.0426 16.2404 81.1722L30.6763 63.1222C35.3468 64.7407 40.6895 68.0481 46.7045 73.0444L60.7158 62.3833C67.1554 57.4574 70.3752 51.5463 70.3752 44.65C70.3752 37.05 66.3416 31.7019 58.2744 28.6056L66.8723 17.8389L64.9617 16.3611L55.7269 27.8667C55.4439 27.7259 55.2316 27.6556 55.09 27.6556C54.9485 27.5852 54.807 27.5148 54.6655 27.4444L35.8775 20.9C30.4994 19 27.8104 16.0796 27.8104 12.1389C27.8104 9.95741 28.6242 8.12778 30.2518 6.65C31.8793 5.10185 33.8254 4.32778 36.0898 4.32778C37.5759 4.32778 38.9204 4.53889 40.1234 4.96112C42.1756 5.73519 44.157 7.42408 46.0676 10.0278C46.5629 10.7315 47.1644 11.6815 47.8721 12.8778C48.5797 14.0037 49.3935 15.3759 50.3135 16.9944ZM23.4584 61.8556C24.9444 61.8556 26.5012 62.0315 28.1288 62.3833L13.2683 80.75C11.2162 83.2833 9.30551 84.55 7.5364 84.55C4.21048 84.55 2.54752 82.5093 2.54752 78.4278C2.54752 73.9241 4.9535 69.9833 9.76548 66.6056C14.0821 63.4389 18.6464 61.8556 23.4584 61.8556ZM52.9671 64.8111C47.2352 60.3074 41.6448 57.4926 36.196 56.3667L44.5815 45.8111C45.7845 46.163 46.9522 46.55 48.0844 46.9722C49.2874 47.3944 50.4904 47.7815 51.6934 48.1333C54.8778 49.4 56.47 50.8426 56.47 52.4611C56.47 54.0796 54.9839 56.0852 52.0118 58.4778L53.604 60.2722C55.0193 58.9352 56.1515 57.8444 57.0007 57C57.9206 56.0852 58.5575 55.4519 58.9113 55.1C60.7512 52.9185 61.6711 50.7722 61.6711 48.6611C61.6711 45.6352 60.4681 43.3482 58.0622 41.8C57.3545 41.3778 56.3638 40.9204 55.09 40.4278C53.8163 39.8648 52.2241 39.3019 50.3135 38.7389L52.9671 35.5722C61.3173 38.3167 65.4924 42.5741 65.4924 48.3444C65.4924 51.7222 64.5725 54.4315 62.7326 56.4722C60.6804 58.3722 58.8406 60.0259 57.213 61.4333C55.5854 62.7704 54.1701 63.8963 52.9671 64.8111Z" fill="black"/>
<path d="M90.7064 95C91.9801 95 93.0062 94.8593 93.7846 94.5778V92.15C92.8647 92.4315 91.8032 92.5722 90.6002 92.5722C86.5666 92.5722 83.1346 91.3759 80.304 88.9833C77.2611 86.5907 75.7397 83.3889 75.7397 79.3778C75.7397 75.9296 77.155 73.1148 79.9855 70.9333C82.6038 68.963 85.6467 67.9778 89.1142 67.9778C93.5723 67.9778 97.6766 69.6667 101.427 73.0444L111.936 62.8056L110.131 61.0111L107.69 63.4389V53.3056C110.308 51.7574 112.962 50.9833 115.651 50.9833C118.411 50.9833 121.347 51.7574 124.461 53.3056V59.6389L118.729 65.1278L120.427 67.0278L122.656 65.1278L130.936 73.0444L141.338 62.8056L139.64 61.0111L135.606 64.8111L132.528 61.6445V13.0889L137.835 7.81111L136.243 5.91112L133.59 8.23333L125.31 0L115.014 10.2389L116.712 12.1389L120.64 8.55L124.461 12.1389V19C121.772 20.6185 119.26 21.4278 116.925 21.4278C114.448 21.4278 111.37 20.6185 107.69 19V1.26667L105.248 1.26667C104.612 3.44815 103.196 4.53889 101.003 4.53889C99.3042 4.53889 96.6152 3.8 92.9354 2.32222C89.3265 0.774074 86.602 0 84.7621 0C81.7193 0 78.9949 1.30185 76.5889 3.90556C74.1829 6.50926 72.9799 9.32408 72.9799 12.35C72.9799 16.3611 74.7844 19.4574 78.3934 21.6389L79.7733 19.95C77.0842 18.05 75.7397 15.763 75.7397 13.0889C75.7397 11.7519 76.1997 10.5907 77.1196 9.60556C78.1103 8.62037 79.2779 8.12778 80.6224 8.12778C82.1793 8.12778 84.6914 8.72593 88.1588 9.92223C91.5555 11.0482 94.1384 11.6111 95.9075 11.6111C99.0919 11.6111 102.206 9.46482 105.248 5.17222V63.8611C100.932 61.6796 96.6859 60.5889 92.5108 60.5889C87.2743 60.5889 82.71 62.313 78.8179 65.7611C74.9259 69.2093 72.9799 73.537 72.9799 78.7444C72.9799 83.6 74.7136 87.5407 78.1811 90.5667C81.5778 93.5222 85.7529 95 90.7064 95ZM115.757 48.6611C112.997 48.6611 110.308 49.3648 107.69 50.7722V39.6889H124.461V50.6667C121.56 49.3296 118.658 48.6611 115.757 48.6611ZM124.461 31.6667H107.69V21.6389C110.803 22.9759 113.811 23.6444 116.712 23.6444C119.401 23.6444 121.984 22.9759 124.461 21.6389V31.6667ZM92.9354 55.5222L91.3432 56.6833L92.9354 58.5833L101.003 52.1444V14.8833L102.489 13.7222L101.321 11.8222L92.9354 18.2611V31.0333C86.4251 31.0333 83.17 34.0593 83.17 40.1111C83.17 41.9407 83.5592 44.0167 84.3376 46.3389L86.9912 45.2833C86.5666 44.4389 86.3543 43.5944 86.3543 42.75C86.3543 41.4833 86.7082 40.3926 87.4158 39.4778C88.1942 38.4926 89.2203 38 90.4941 38C91.2725 38 92.0863 38.3167 92.9354 38.95V55.5222Z" fill="black"/>
<path d="M164.031 59.9556L162.545 61.1167L164.031 63.0167L172.098 56.5778V14.7778L173.691 13.5111L172.098 11.6111L164.031 18.1556V31.2444C157.592 31.2444 154.372 34.2704 154.372 40.3222C154.372 42.1519 154.69 44.2278 155.327 46.55L158.087 45.4944C157.662 44.4389 157.45 43.5944 157.45 42.9611C157.45 41.7648 157.839 40.6741 158.618 39.6889C159.396 38.7037 160.422 38.2111 161.696 38.2111C162.404 38.2111 163.182 38.5278 164.031 39.1611V59.9556ZM147.897 12.4556C147.897 15.763 149.595 19.0352 152.992 22.2722L154.796 20.4778C152.037 18.2963 150.657 15.763 150.657 12.8778C150.657 11.5407 151.117 10.3444 152.037 9.28889C153.027 8.23333 154.195 7.70556 155.539 7.70556C156.672 7.70556 158.618 8.19815 161.378 9.18333C164.208 10.1685 166.296 10.6611 167.64 10.6611C169.692 10.6611 172.063 9.7463 174.752 7.91667L180.802 2.85L179.316 1.05556C177.335 2.81482 175.354 3.69445 173.372 3.69445C170.471 2.85 167.711 2.00556 165.093 1.16111C162.687 0.457412 160.67 0.10556 159.042 0.10556C156.141 0.10556 153.523 1.47778 151.187 4.22222C148.994 6.68519 147.897 9.42963 147.897 12.4556Z" fill="black"/>
<path d="M284.586 59.9556L283.1 61.1167L284.586 63.0167L292.653 56.5778V14.7778L294.246 13.5111L292.653 11.6111L284.586 18.1556V31.2444C278.147 31.2444 274.927 34.2704 274.927 40.3222C274.927 42.1519 275.245 44.2278 275.882 46.55L278.642 45.4944C278.217 44.4389 278.005 43.5944 278.005 42.9611C278.005 41.7648 278.394 40.6741 279.173 39.6889C279.951 38.7037 280.977 38.2111 282.251 38.2111C282.959 38.2111 283.737 38.5278 284.586 39.1611V59.9556ZM268.452 12.4556C268.452 15.763 270.15 19.0352 273.547 22.2722L275.352 20.4778C272.592 18.2963 271.212 15.763 271.212 12.8778C271.212 11.5407 271.672 10.3444 272.592 9.28889C273.582 8.23333 274.75 7.70556 276.095 7.70556C277.227 7.70556 279.173 8.19815 281.933 9.18333C284.763 10.1685 286.851 10.6611 288.195 10.6611C290.247 10.6611 292.618 9.7463 295.307 7.91667L301.357 2.85L299.871 1.05556C297.89 2.81482 295.909 3.69445 293.927 3.69445C291.026 2.85 288.266 2.00556 285.648 1.16111C283.242 0.457412 281.225 0.10556 279.597 0.10556C276.696 0.10556 274.078 1.47778 271.743 4.22222C269.549 6.68519 268.452 9.42963 268.452 12.4556Z" fill="black"/>
<path d="M156.527 62.5865C161 66.5 159.679 69.5 164.35 72.2C167.463 72.2 170.542 71.1796 173.584 69.1389L184.517 61.3278V6.33333L188.445 3.06112L186.959 1.16111L176.45 9.60556V63.7556C173.549 66.0778 171.461 67.2389 170.188 67.2389C168.206 67.2389 164.703 65.163 159.679 61.0111C154.655 56.8593 156.692 57.2111 153.578 57.2111L152.992 59.2167L156.527 62.5865Z" fill="black"/>
<path d="M260.647 62.9111L259.485 64.0787C260.812 63.3116 262.325 63.0167 263.888 63.0167C265.303 63.0167 268.311 64.5648 272.91 67.6611C277.439 70.687 281.437 72.2 284.905 72.2C288.018 72.2 291.097 71.1796 294.139 69.1389L305.073 61.3278V6.33333L309 3.06112L307.514 1.16111L297.005 9.60556V63.7556C294.104 66.0778 292.017 67.2389 290.743 67.2389C288.761 67.2389 285.259 65.163 280.234 61.0111C275.21 56.8593 271.141 54.7833 268.027 54.7833C263.228 54.7833 261.998 56.6038 258.972 61.0827L258.949 61.1167L260.647 62.9111Z" fill="black"/>
<path fill-rule="evenodd" clip-rule="evenodd" d="M220.311 57.2111L221.797 59.1111L230.395 52.25V34.4111L233.367 31.9833V63.5444C228.626 61.5037 224.486 60.4833 220.948 60.4833C215.712 60.4833 211.147 62.2778 207.255 65.8667C203.222 69.4556 201.205 73.8185 201.205 78.9556L204.071 79.5889C204.071 76.2111 205.521 73.3963 208.423 71.1444C211.041 69.2444 214.119 68.2944 217.658 68.2944C221.903 68.2944 225.902 69.8778 229.652 73.0444L240.161 62.9111L238.462 61.1167L235.809 63.5444V48.8722L240.691 45.0722C242.46 45.7056 243.805 47.7463 244.725 51.1944C245.008 52.1796 245.326 53.5167 245.68 55.2056C246.034 56.8944 246.388 58.9704 246.742 61.4333C247.379 65.8667 247.945 68.6111 248.44 69.6667C248.935 70.7926 249.643 71.9185 250.563 73.0444L256.826 66.7511H254.81C254.81 63.461 255.408 63.7696 256.604 63.2387C255.337 61.3935 254.102 57.9769 252.898 52.9889C251.624 47.8519 249.36 43.7352 246.105 40.6389L256.826 31.9833L246.105 18.7889L235.809 26.8111V15.9389H233.367V28.7111L230.395 31.1389V8.44445C232.589 6.54445 234.57 5.59445 236.339 5.59445C238.108 5.59445 239.948 6.57963 241.859 8.55C242.567 9.32407 243.274 10.1333 243.982 10.9778L246.105 13.5111L256.826 5.17222L254.915 2.95556L252.049 5.17222C247.874 1.72407 244.265 0 241.222 0C238.392 0 235.773 0.985185 233.367 2.95556L222.328 11.7167V55.5222L220.311 57.2111ZM235.809 45.7056L247.909 35.9944L240.161 26.4944L235.809 29.8722V45.7056Z" fill="black"/>
<path fill-rule="evenodd" clip-rule="evenodd" d="M208.954 59.2167L210.546 57.95V38.95C209.697 38.3167 208.883 38 208.104 38C205.345 38 203.965 39.5833 203.965 42.75C203.965 43.5944 204.177 44.4389 204.602 45.2833L201.842 46.3389C201.134 43.8056 200.78 41.7296 200.78 40.1111C200.78 34.0593 204.035 31.0333 210.546 31.0333V18.2611L218.613 11.7167L220.099 13.7222L218.613 14.9889V54.5722L210.546 61.1167L208.954 59.2167ZM199.931 22.1667C196.464 18.7889 194.73 15.5167 194.73 12.35C194.73 9.32408 195.827 6.57963 198.02 4.11667C200.356 1.37222 202.974 0 205.875 0C208.069 0 210.758 0.562964 213.942 1.68889C217.764 3.02593 219.887 3.69445 220.311 3.69445C222.151 3.69445 224.097 2.81482 226.149 1.05556L227.635 2.95556C226.645 3.72963 225.654 4.53889 224.663 5.38333C223.673 6.22778 222.682 7.03704 221.691 7.81111C219.214 9.64074 216.915 10.5556 214.792 10.5556C213.306 10.5556 211.218 10.0981 208.529 9.18333C205.769 8.19815 203.717 7.70556 202.372 7.70556C200.957 7.70556 199.79 8.23333 198.87 9.28889C198.02 10.2741 197.596 11.4704 197.596 12.8778C197.596 15.6926 198.94 18.2259 201.629 20.4778L199.931 22.1667Z" fill="black"/>
<path d="M260.647 62.9111L258.949 61.1167C258.499 61.7582 258.087 62.2077 257.711 62.5324L256.826 63.5444C256.752 63.4478 256.678 63.3459 256.604 63.2387C255.408 63.7696 254.81 63.461 254.81 66.7511H256.826C257.562 65.5304 258.469 64.6661 259.485 64.0787L260.647 62.9111Z" fill="black"/>
</svg>
