<svg width="630" height="81" viewBox="0 0 630 81" fill="none" xmlns="http://www.w3.org/2000/svg">
<path d="M210 81L257.5 -7.06296e-06L304.5 -6.50249e-06L256.948 81L210 81Z" fill="#E5A604" fill-opacity="0.8"/>
<path d="M319 -1.92102e-06L366.5 81L413.5 81L365.948 9.60511e-06L319 -1.92102e-06Z" fill="#183F66" fill-opacity="0.8"/>
<path d="M115 -1.92102e-06L162.5 81L209.5 81L161.948 9.60511e-06L115 -1.92102e-06Z" fill="#E5A604" fill-opacity="0.8"/>
<line x1="1.74846e-07" y1="38" x2="630" y2="38.0001" stroke="black" stroke-width="4"/>
<path d="M351.5 -1.92102e-06L304 81L257 81L304.552 9.60511e-06L351.5 -1.92102e-06Z" fill="#183F66" fill-opacity="0.8"/>
<path d="M515.5 -1.92102e-06L468 81L421 81L468.552 9.60511e-06L515.5 -1.92102e-06Z" fill="#E23D1E" fill-opacity="0.8"/>
<path d="M465.5 -1.92102e-06L418 81L371 81L418.552 9.60511e-06L465.5 -1.92102e-06Z" fill="#E23D1E" fill-opacity="0.8"/>
</svg>
