<svg width="630" height="81" viewBox="0 0 630 81" fill="none" xmlns="http://www.w3.org/2000/svg">
<path d="M180 81L227.5 -7.06296e-06L274.5 -6.50249e-06L226.948 81L180 81Z" fill="#E5A604" fill-opacity="0.8"/>
<path d="M475 -1.92102e-06L522.5 81L569.5 81L521.948 9.60511e-06L475 -1.92102e-06Z" fill="#183F66" fill-opacity="0.8"/>
<line x1="1.74846e-07" y1="38" x2="630" y2="38.0001" stroke="black" stroke-width="4"/>
<path d="M287 -1.92102e-06L334.5 81L381.5 81L333.948 9.60511e-06L287 -1.92102e-06Z" fill="#E5A604" fill-opacity="0.8"/>
<path d="M227 -1.92102e-06L274.5 81L321.5 81L273.948 9.60511e-06L227 -1.92102e-06Z" fill="#183F66" fill-opacity="0.8"/>
<path d="M475.5 -1.92102e-06L428 81L381 81L428.552 9.60511e-06L475.5 -1.92102e-06Z" fill="#E23D1E" fill-opacity="0.8"/>
<path d="M86 -1.92102e-06L133.5 81L180.5 81L132.948 9.60511e-06L86 -1.92102e-06Z" fill="#E23D1E" fill-opacity="0.8"/>
</svg>
