<svg width="630" height="81" viewBox="0 0 630 81" fill="none" xmlns="http://www.w3.org/2000/svg">
<path d="M211 81L258.5 -7.06296e-06L305.5 -6.50249e-06L257.948 81L211 81Z" fill="#E5A604" fill-opacity="0.8"/>
<path d="M320 -1.92102e-06L367.5 81L414.5 81L366.948 9.60511e-06L320 -1.92102e-06Z" fill="#183F66" fill-opacity="0.8"/>
<line x1="1.74846e-07" y1="38" x2="630" y2="38.0001" stroke="black" stroke-width="4"/>
<path d="M116 -1.92102e-06L163.5 81L210.5 81L162.948 9.60511e-06L116 -1.92102e-06Z" fill="#E5A604" fill-opacity="0.8"/>
<path d="M352.5 -1.92102e-06L305 81L258 81L305.552 9.60511e-06L352.5 -1.92102e-06Z" fill="#183F66" fill-opacity="0.8"/>
<path d="M513.5 -1.92102e-06L466 81L419 81L466.552 9.60511e-06L513.5 -1.92102e-06Z" fill="#E23D1E" fill-opacity="0.8"/>
<path d="M466.5 -1.92102e-06L419 81L372 81L419.552 9.60511e-06L466.5 -1.92102e-06Z" fill="#E23D1E" fill-opacity="0.8"/>
</svg>
