<svg width="630" height="82" viewBox="0 0 630 82" fill="none" xmlns="http://www.w3.org/2000/svg">
<path d="M143 82L190.5 0.999993L237.5 0.999993L189.948 82L143 82Z" fill="#E5A604" fill-opacity="0.8"/>
<path d="M423 -1.92102e-06L470.5 81L517.5 81L469.948 9.60511e-06L423 -1.92102e-06Z" fill="#183F66" fill-opacity="0.8"/>
<line x1="1.74846e-07" y1="38" x2="630" y2="38.0001" stroke="black" stroke-width="4"/>
<path d="M290 -1.92102e-06L337.5 81L384.5 81L336.948 9.60511e-06L290 -1.92102e-06Z" fill="#E5A604" fill-opacity="0.8"/>
<path d="M196 -1.92102e-06L243.5 81L290.5 81L242.948 9.60511e-06L196 -1.92102e-06Z" fill="#183F66" fill-opacity="0.8"/>
<path d="M431.5 -1.92102e-06L384 81L337 81L384.552 9.60511e-06L431.5 -1.92102e-06Z" fill="#E23D1E" fill-opacity="0.8"/>
<path d="M243 -1.92102e-06L290.5 81L337.5 81L289.948 9.60511e-06L243 -1.92102e-06Z" fill="#E23D1E" fill-opacity="0.8"/>
</svg>
