<svg width="71" height="27" viewBox="0 0 71 27" fill="none" xmlns="http://www.w3.org/2000/svg">
<path d="M11 18.5L23 26.5H49L60 18.5" stroke="black"/>
<rect x="55.5" y="1.5" width="15" height="15" rx="2.5" stroke="black"/>
<path d="M35 26V17" stroke="black"/>
<path d="M29.5888 17.5504L29.5615 17.3953C29.5342 17.2558 29.4251 17.1783 29.3023 17.2248C29.1931 17.2713 29.0839 17.2713 28.9475 17.2713C28.4016 17.2713 28.1833 16.8837 28.1833 15.9225C28.1833 14.9922 28.5245 12.9767 28.5245 11.7829C28.5245 10.7287 28.2652 10.155 27.6102 9.79845H27.5965C28.2242 9.48837 28.5245 8.8062 28.5245 7.72093C28.5245 6.55814 28.1833 4.91473 28.1833 4.07752C28.1833 3.1938 28.4562 2.68217 28.9475 2.68217C29.0566 2.68217 29.1385 2.69767 29.3159 2.72868C29.4524 2.75969 29.5479 2.68217 29.5615 2.54264L29.5752 2.43411C29.5888 2.29457 29.5479 2.20155 29.4524 2.15504C29.1658 2.04651 28.9475 2 28.7018 2C27.542 2 26.8733 2.74419 26.8733 4.04651C26.8733 4.99225 27.2281 6.57364 27.2281 7.73643C27.2281 8.97674 26.9143 9.51938 26.2047 9.51938C26.0819 9.51938 26 9.6124 26 9.75194V9.79845C26 9.93798 26.0819 10.031 26.2047 10.031C26.9416 10.031 27.2281 10.5581 27.2281 11.907C27.2281 13.2558 26.8733 14.8682 26.8733 16C26.8733 17.3953 27.3919 18 28.6063 18C28.9202 18 29.1658 17.938 29.4524 17.8295C29.5615 17.7829 29.6025 17.6899 29.5888 17.5504Z" fill="black"/>
<path d="M43.7953 9.51938C43.0994 9.51938 42.7855 8.96124 42.7855 7.73643C42.7855 6.57364 43.1403 4.99225 43.1403 4.04651C43.1403 2.74419 42.4717 2 41.3118 2C41.0662 2 40.8206 2.04651 40.5613 2.15504C40.4385 2.20155 40.3839 2.31008 40.4248 2.44961L40.4521 2.54264C40.4931 2.69767 40.5613 2.74419 40.6977 2.72868C40.8751 2.69767 40.9434 2.68217 41.0662 2.68217C41.5574 2.68217 41.8303 3.1938 41.8303 4.07752C41.8303 4.91473 41.4892 6.55814 41.4892 7.72093C41.4892 8.77519 41.7758 9.44186 42.4035 9.78295V9.79845C41.7621 10.1085 41.4892 10.6977 41.4892 11.7829C41.4892 12.9767 41.8303 14.9922 41.8303 15.9225C41.8303 16.8837 41.5984 17.2713 41.0662 17.2713C40.9297 17.2713 40.8069 17.2558 40.6977 17.2248C40.5749 17.1938 40.4794 17.2558 40.4521 17.3953L40.4248 17.5504C40.4112 17.6899 40.4521 17.7829 40.5613 17.8295C40.8342 17.9225 41.0935 18 41.3937 18C42.6081 18 43.1403 17.3953 43.1403 16C43.1403 14.8682 42.7855 13.2558 42.7855 11.907C42.7855 10.5581 43.0721 10.031 43.7953 10.031C43.9318 10.031 44 9.95349 44 9.79845V9.75194C44 9.6124 43.9181 9.51938 43.7953 9.51938Z" fill="black"/>
<path d="M14 3.90909V6.81818L7.5 3.42424L4.25 5.36364L14 10.2121V13.6061L7.5 17L1 13.6061V10.2121L7.5 13.6061L10.75 12.1515L1 6.81818V4.39394L7.5 1L14 3.90909Z" stroke="black"/>
<path d="M59 9H61.5M64 9H61.5M61.5 9V14.5" stroke="black"/>
<path d="M69 9H65V11.5H68V14H64" stroke="black"/>
</svg>
