<svg width="501" height="92" viewBox="0 0 501 92" fill="none" xmlns="http://www.w3.org/2000/svg">
<path d="M31.6181 69.7403C41.6135 69.7403 49.773 64.805 56.0966 54.9345L54.2607 53.6071C49.773 58.0999 46.5772 60.6866 44.6733 61.3674V14.3973L56.0966 3.06327L54.2607 1.42952L48.7531 6.63707C40.1176 2.21236 31.4481 0 22.7446 0C16.421 0 11.0833 1.63374 6.73159 4.90122C2.24386 8.30485 0 12.3211 0 16.9501C0 20.8983 1.76789 23.9275 5.30368 26.0377L6.42561 23.8935C4.04575 22.1236 2.85583 19.9793 2.85583 17.4606C2.85583 14.057 4.35174 11.1639 7.34355 8.78136C10.0634 6.67111 13.2252 5.61598 16.829 5.61598C21.3847 5.61598 26.8244 7.11358 33.148 10.1088L18.7669 24.404L20.6028 26.0377L24.2745 22.3618V50.8502L21.4187 52.9945L22.6426 54.9345L32.0261 48.1953V14.3973L35.4939 11.1299L42.3274 14.3973V62.1842C40.9675 62.5927 39.6076 62.7969 38.2477 62.7969C30.6321 62.7969 24.4445 60.1421 19.6848 54.8324C15.0611 49.6589 12.7492 43.2261 12.7492 35.5339C12.7492 27.229 16.047 19.7751 22.6426 13.172L20.6028 11.1299C15.1631 15.8269 11.3213 20.1495 9.07745 24.0977C6.08563 29.135 4.58972 34.6829 4.58972 40.7414C4.58972 48.7059 7.07157 55.4791 12.0353 61.061C17.203 66.8472 23.7306 69.7403 31.6181 69.7403Z" fill="black"/>
<path d="M154.676 58.3041L156.104 60.1421L164.875 53.0966V12.0488L168.445 9.49612V67.2897C167.425 67.3577 166.609 67.3918 165.997 67.3918C165.453 67.3918 165.113 67.3918 164.977 67.3918C152.738 67.3918 146.618 57.0107 146.618 36.2486C146.618 27.5353 147.468 21.1365 149.168 17.0522C150.188 14.3973 151.99 11.7765 154.574 9.18979C155.73 8.03256 156.852 6.90936 157.94 5.8202C159.028 4.73104 160.116 3.60785 161.204 2.45062L159.98 1.02109C144.341 10.4151 136.521 22.4639 136.521 37.1676C136.521 45.7447 139.207 53.2327 144.579 59.6315C150.29 66.3707 157.362 69.7403 165.793 69.7403C174.769 69.7403 181.942 66.0303 187.314 58.6104C192.686 51.1905 195.372 42.7495 195.372 33.2875C195.372 18.9922 189.354 7.89641 177.319 0L170.893 4.5949V1.02109H168.445V6.33075L151.718 18.5838L153.146 20.4218L157.124 17.4606V56.2619L154.676 58.3041ZM186.396 46.97C184.016 58.8147 178.849 65.5198 170.893 67.0855V46.3574C173.341 45.2002 175.721 44.6215 178.033 44.6215C181.228 44.6215 184.016 45.4044 186.396 46.97ZM178.747 42.3751C176.163 42.3751 173.545 42.9197 170.893 44.0089V26.0377C173.001 27.1269 175.245 27.6715 177.625 27.6715C180.276 27.6715 182.894 27.1269 185.478 26.0377C186.702 30.4625 187.314 34.0022 187.314 36.6571C187.314 36.9293 187.246 37.7122 187.11 39.0056C187.042 40.2309 186.94 42.0348 186.804 44.4173C184.084 43.0559 181.398 42.3751 178.747 42.3751ZM178.033 25.2209C175.585 25.2209 173.205 24.6423 170.893 23.485V7.55605C174.429 10.0067 177.183 12.3552 179.155 14.6016C181.262 17.0522 183.2 20.0814 184.968 23.6892C182.724 24.7103 180.412 25.2209 178.033 25.2209Z" fill="black"/>
<path d="M237.936 16.4395L248.543 7.86238L247.013 5.92231L244.463 7.86238C241.063 2.62079 236.1 0 229.572 0C225.152 0 221.209 1.32741 217.741 3.98225C214.001 6.84129 212.131 10.4151 212.131 14.7037C212.131 20.1495 214.239 24.0636 218.455 26.4462C222.671 28.6926 229.164 31.0411 237.936 33.4917L235.386 36.6571C231.102 35.4998 227.396 34.3085 224.268 33.0832C221.141 31.7899 218.489 30.4965 216.313 29.2031C211.961 26.6844 209.785 22.7362 209.785 17.3585C209.785 17.2223 209.785 16.7799 209.785 16.0311C209.853 15.2142 209.921 14.091 209.989 12.6615H207.745C206.862 15.7928 206.42 18.9242 206.42 22.0555C206.42 28.5905 208.357 33.2194 212.233 35.9423C216.313 38.7333 222.229 41.2519 229.98 43.4983L221.617 54.0155C220.053 53.8113 218.761 53.7092 217.741 53.7092C209.105 53.7092 202.816 55.8535 198.872 60.1421C192.684 66.609 189.591 71.8505 189.591 75.8668C189.591 78.2494 190.203 80.1894 191.426 81.687C192.718 83.3208 194.554 84.1376 196.934 84.1376C199.518 84.1376 202.272 82.2656 205.196 78.5216L219.067 61.061C223.555 62.6267 228.688 65.8261 234.468 70.6593L247.931 60.3463C254.119 55.5812 257.212 49.8631 257.212 43.192C257.212 35.8402 253.337 30.6667 245.585 27.6715L253.847 17.2564L252.011 15.8269L243.137 26.9567C242.865 26.8206 242.661 26.7525 242.525 26.7525C242.389 26.6844 242.253 26.6164 242.117 26.5483L224.064 20.2175C218.897 18.3796 216.313 15.5546 216.313 11.7425C216.313 9.63227 217.095 7.86238 218.659 6.43285C220.223 4.93526 222.093 4.18646 224.268 4.18646C225.696 4.18646 226.988 4.39068 228.144 4.79912C230.116 5.54791 232.02 7.18165 233.856 9.70034C234.332 10.3811 234.91 11.3 235.59 12.4573C236.27 13.5464 237.052 14.8738 237.936 16.4395ZM212.131 59.8357C213.559 59.8357 215.055 60.0059 216.619 60.3463L202.34 78.1132C200.368 80.5638 198.532 81.7891 196.832 81.7891C193.636 81.7891 192.038 79.815 192.038 75.8668C192.038 71.5102 194.35 67.6981 198.974 64.4306C203.122 61.3674 207.507 59.8357 212.131 59.8357ZM240.485 62.6948C234.978 58.3381 229.606 55.6152 224.37 54.5261L232.428 44.3152C233.584 44.6556 234.706 45.03 235.794 45.4384C236.95 45.8468 238.106 46.2212 239.262 46.5616C242.321 47.7869 243.851 49.1824 243.851 50.7481C243.851 52.3137 242.423 54.2538 239.568 56.5683L241.097 58.3041C242.457 57.0107 243.545 55.9556 244.361 55.1387C245.245 54.2538 245.857 53.6411 246.197 53.3008C247.965 51.1905 248.849 49.1143 248.849 47.0721C248.849 44.145 247.693 41.9327 245.381 40.4351C244.701 40.0266 243.749 39.5842 242.525 39.1077C241.301 38.5631 239.772 38.0185 237.936 37.4739L240.485 34.4107C248.509 37.0655 252.521 41.1839 252.521 46.7658C252.521 50.0333 251.637 52.6541 249.869 54.6282C247.897 56.4662 246.129 58.0659 244.565 59.4273C243.001 60.7207 241.641 61.8098 240.485 62.6948Z" fill="black"/>
<path d="M285.214 51.667L286.744 53.6071L295.923 46.0511V8.1687C297.827 6.46689 299.391 5.61598 300.615 5.61598C302.927 5.61598 306.021 8.30485 309.896 13.6826L319.076 4.697L317.546 3.06327L315.2 5.20755C311.8 1.73585 308.604 0 305.613 0C303.165 0 300.717 1.02109 298.269 3.06327L288.172 11.4362V49.3185L285.214 51.667ZM276.34 53.6071L273.076 56.2619L274.504 58.0999L284.092 50.4417V14.091L285.52 12.8657L284.092 11.0278L276.34 17.2564V30.02C270.085 30.02 266.957 32.9471 266.957 38.8013C266.957 40.4351 267.331 42.4432 268.079 44.8258L270.629 43.8047C270.221 42.9878 270.017 42.1369 270.017 41.2519C270.017 40.0266 270.391 38.9715 271.139 38.0866C271.887 37.2016 272.839 36.7592 273.994 36.7592C274.742 36.7592 275.524 37.0655 276.34 37.6781V53.6071ZM261.959 11.9467C261.959 15.1461 263.625 18.3115 266.957 21.4428L268.589 19.8091C266.005 17.6308 264.713 15.1802 264.713 12.4573C264.713 11.0958 265.121 9.93859 265.937 8.98557C266.821 7.96448 267.943 7.45394 269.303 7.45394C270.527 7.45394 272.465 7.93045 275.116 8.88346C277.564 9.76841 279.502 10.2109 280.93 10.2109C282.902 10.2109 285.18 9.2919 287.764 7.45394C287.9 7.38587 288.444 6.97744 289.396 6.22864C290.347 5.41177 291.775 4.2205 293.679 2.65483L292.149 1.02109C289.973 2.65483 288.104 3.4717 286.54 3.4717L280.726 1.63374C277.258 0.544581 274.606 0 272.771 0C269.915 0 267.399 1.29338 265.223 3.88014C263.047 6.46689 261.959 9.15576 261.959 11.9467Z" fill="black"/>
<path d="M330.735 92C330.871 92 331.177 92 331.653 92C332.197 92 332.945 91.966 333.897 91.8979V89.4473C333.557 89.5154 333.183 89.5494 332.775 89.5494C332.435 89.6175 332.061 89.6515 331.653 89.6515C327.777 89.6515 324.445 88.4943 321.657 86.1798C318.802 83.6611 317.374 80.5298 317.374 76.7858C317.374 73.5183 318.598 70.7954 321.045 68.6171C323.357 66.7111 326.179 65.758 329.511 65.758C333.931 65.758 337.908 67.4258 341.444 70.7614L351.44 60.7547L349.808 58.9168L346.136 62.4906C342.124 60.108 337.84 58.9168 333.285 58.9168L337.262 47.6848H359.395L363.577 61.7758C364.869 66.3367 366.875 69.3319 369.595 70.7614L379.692 60.7547L378.06 58.9168L374.388 62.5927C373.028 62.0481 372.042 61.2312 371.43 60.1421C371.294 59.8698 371.09 59.4273 370.818 58.8147C370.615 58.202 370.376 57.4192 370.104 56.4662L356.743 11.9467C355.519 7.86238 354.499 5.24159 353.684 4.08435L354.601 1.1232L352.358 0.204221L351.44 2.3485C349.332 0.850909 347.088 0.102114 344.708 0.102114C341.172 0.102114 338.01 1.36145 335.223 3.88014C334.271 4.62893 333.251 5.68406 332.163 7.04551C331.143 8.40696 329.987 10.0407 328.695 11.9467L330.633 13.2741C333.489 9.12172 336.719 7.04551 340.322 7.04551C343.382 7.04551 345.932 8.50907 347.972 11.4362L343.994 21.8513C342.702 21.7832 341.716 21.7492 341.036 21.7492C340.356 21.6811 339.948 21.6471 339.812 21.6471C334.645 21.6471 332.061 24.6082 332.061 30.5305C332.061 32.3685 332.469 34.3426 333.285 36.4528L335.529 35.4317C335.189 34.4107 335.019 33.6278 335.019 33.0832C335.019 29.9519 336.379 28.3862 339.098 28.3862C339.982 28.3862 340.764 28.7266 341.444 29.4073L330.633 58.9168C326.009 59.4613 322.167 61.2653 319.108 64.3285C315.912 67.5279 314.314 71.374 314.314 75.8668C314.314 80.2915 315.946 84.0696 319.21 87.2009C322.609 90.4003 326.451 92 330.735 92ZM356.947 39.9245H340.22L349.4 14.7037L356.947 39.9245Z" fill="black"/>
<path d="M413.536 16.4395L424.144 7.86238L422.614 5.92231L420.064 7.86238C416.664 2.62079 411.7 0 405.173 0C400.753 0 396.809 1.32741 393.342 3.98225C389.602 6.84129 387.732 10.4151 387.732 14.7037C387.732 20.1495 389.84 24.0636 394.056 26.4462C398.271 28.6926 404.765 31.0411 413.536 33.4917L410.986 36.6571C406.703 35.4998 402.997 34.3085 399.869 33.0832C396.741 31.7899 394.09 30.4965 391.914 29.2031C387.562 26.6844 385.386 22.7362 385.386 17.3585C385.386 17.2223 385.386 16.7799 385.386 16.0311C385.454 15.2142 385.522 14.091 385.59 12.6615H383.346C382.462 15.7928 382.02 18.9242 382.02 22.0555C382.02 28.5905 383.958 33.2194 387.834 35.9423C391.914 38.7333 397.829 41.2519 405.581 43.4983L397.217 54.0155C395.653 53.8113 394.362 53.7092 393.342 53.7092C384.706 53.7092 378.416 55.8535 374.473 60.1421C368.285 66.609 365.191 71.8505 365.191 75.8668C365.191 78.2494 365.803 80.1894 367.027 81.687C368.319 83.3208 370.155 84.1376 372.535 84.1376C375.119 84.1376 377.872 82.2656 380.796 78.5216L394.667 61.061C399.155 62.6267 404.289 65.8261 410.069 70.6593L423.532 60.3463C429.719 55.5812 432.813 49.8631 432.813 43.192C432.813 35.8402 428.937 30.6667 421.186 27.6715L429.447 17.2564L427.611 15.8269L418.738 26.9567C418.466 26.8206 418.262 26.7525 418.126 26.7525C417.99 26.6844 417.854 26.6164 417.718 26.5483L399.665 20.2175C394.497 18.3796 391.914 15.5546 391.914 11.7425C391.914 9.63227 392.696 7.86238 394.259 6.43285C395.823 4.93526 397.693 4.18646 399.869 4.18646C401.297 4.18646 402.589 4.39068 403.745 4.79912C405.717 5.54791 407.621 7.18165 409.457 9.70034C409.933 10.3811 410.51 11.3 411.19 12.4573C411.87 13.5464 412.652 14.8738 413.536 16.4395ZM387.732 59.8357C389.16 59.8357 390.656 60.0059 392.22 60.3463L377.94 78.1132C375.969 80.5638 374.133 81.7891 372.433 81.7891C369.237 81.7891 367.639 79.815 367.639 75.8668C367.639 71.5102 369.951 67.6981 374.575 64.4306C378.722 61.3674 383.108 59.8357 387.732 59.8357ZM416.086 62.6948C410.578 58.3381 405.207 55.6152 399.971 54.5261L408.029 44.3152C409.185 44.6556 410.307 45.03 411.394 45.4384C412.55 45.8468 413.706 46.2212 414.862 46.5616C417.922 47.7869 419.452 49.1824 419.452 50.7481C419.452 52.3137 418.024 54.2538 415.168 56.5683L416.698 58.3041C418.058 57.0107 419.146 55.9556 419.962 55.1387C420.846 54.2538 421.458 53.6411 421.798 53.3008C423.566 51.1905 424.45 49.1143 424.45 47.0721C424.45 44.145 423.294 41.9327 420.982 40.4351C420.302 40.0266 419.35 39.5842 418.126 39.1077C416.902 38.5631 415.372 38.0185 413.536 37.4739L416.086 34.4107C424.11 37.0655 428.121 41.1839 428.121 46.7658C428.121 50.0333 427.237 52.6541 425.47 54.6282C423.498 56.4662 421.73 58.0659 420.166 59.4273C418.602 60.7207 417.242 61.8098 416.086 62.6948Z" fill="black"/>
<path fill-rule="evenodd" clip-rule="evenodd" d="M59.2939 64.6667C62.2177 62.5564 66.2391 65.8602 69.9789 65.8602C74.7386 65.8602 78.7844 67.4599 82.1162 70.6593L93.0295 62.899L100.781 70.6593C107.581 64.6689 114.89 61.6737 122.71 61.6737C124.274 61.6737 126.177 61.8779 128.421 62.2864L129.033 59.9379C127.469 59.3252 125.94 59.0189 124.444 59.0189V12.8657L132.603 4.697L130.869 2.96116L125.77 7.96448L118.018 0L108.941 9.08768V1.22531H106.493V11.5383L101.801 16.1332C101.869 15.1802 101.903 14.4314 101.903 13.8868V12.8657C101.903 7.76027 99.7271 3.4717 95.3754 0L86.2979 9.08768V1.22531H83.8501V11.5383L79.2604 16.1332C79.2604 11.8446 78.4444 7.89641 76.8125 4.28857C75.4526 1.42952 72.7667 0 68.755 0C64.7432 0 61.8194 1.70181 59.9835 5.10544C58.2156 8.57714 56.8217 12.7976 55.8018 17.7669H57.8416C59.1336 11.9808 61.7514 9.08768 65.6952 9.08768C69.5709 9.08768 71.5088 11.6744 71.5088 16.8479V29.7137C65.2532 29.7137 62.1254 32.5046 62.1254 38.0866C62.1254 39.9926 62.5334 42.1709 63.3493 44.6215L65.6952 44.111C65.2872 43.0218 65.0832 42.1369 65.0832 41.4562C65.0832 40.2309 65.4572 39.1077 66.2051 38.0866C67.0211 37.0655 68.007 36.5549 69.163 36.5549C69.9789 36.5549 70.7609 36.9293 71.5088 37.6781V59.0189C68.041 59.5634 65.0492 60.3803 62.5334 61.4695L59.2939 64.6667ZM79.2604 59.0189C80.7563 59.3592 82.2862 59.9038 83.8501 60.6526V14.9079L79.2604 19.6049V59.0189ZM86.2979 61.7758L88.3378 63.3074L94.0495 59.0189V44.111C92.8255 43.4983 91.5676 43.192 90.2757 43.192C88.9158 43.192 87.5899 43.4983 86.2979 44.111V61.7758ZM86.2979 41.7625C87.4539 41.286 88.7118 41.0477 90.0717 41.0477C91.4996 41.0477 92.8255 41.286 94.0495 41.7625V28.9989C92.8255 29.3393 91.6016 29.5094 90.3777 29.5094C89.6297 29.5094 88.9158 29.4754 88.2358 29.4073C87.6238 29.2712 86.9779 29.135 86.2979 28.9989V41.7625ZM86.2979 26.4462C87.1819 26.9227 88.5078 27.1609 90.2757 27.1609C91.7716 27.1609 93.0295 26.9227 94.0495 26.4462V16.1332C94.0495 12.7296 92.8255 10.1428 90.3777 8.37292L86.2979 12.4573V26.4462ZM101.801 59.0189L106.493 63.818V14.9079L101.801 19.5028V59.0189ZM108.941 62.2864C111.592 60.993 114.176 60.108 116.692 59.6315V44.111C114.856 43.5664 113.598 43.2941 112.918 43.2941C112.238 43.2941 110.912 43.5664 108.941 44.111V62.2864ZM108.941 41.7625C109.96 41.286 111.32 41.0477 113.02 41.0477C114.448 41.0477 115.672 41.286 116.692 41.7625V28.9989C114.652 29.5435 113.428 29.7477 113.02 29.6115L108.941 28.9989V41.7625ZM108.941 26.4462C110.368 26.9908 111.66 27.263 112.816 27.263C113.972 27.263 115.264 26.9908 116.692 26.4462V11.5383L113.326 8.0666L108.941 12.4573V26.4462Z" fill="black"/>
<path d="M275.83 65.2475C279.366 62.7969 283.548 61.5716 288.376 61.5716C296.943 61.5716 304.151 64.6008 309.998 70.6593L319.994 60.7547L318.26 59.0189L315.404 61.98C314.52 61.2312 313.636 60.5505 312.752 59.9379C311.868 59.3252 310.95 58.7806 309.998 58.3041V28.5905L312.038 26.7525L309.182 23.6892L306.021 26.7525L307.652 28.5905V57.283C303.233 55.6493 298.813 54.8324 294.393 54.8324C286.71 54.8324 280.25 56.9427 275.014 61.1632C273.954 61.4899 271.989 65.4128 271.139 67.3333L273.076 68L275.83 65.2475Z" fill="black"/>
<path fill-rule="evenodd" clip-rule="evenodd" d="M442.048 68.6171C444.563 66.7111 447.487 65.758 450.819 65.758C455.103 65.758 459.047 67.3918 462.65 70.6593L472.748 60.7547L471.014 59.0189L468.668 61.3674V51.5649C471.184 50.0673 473.734 49.3185 476.318 49.3185C478.969 49.3185 481.791 50.0673 484.783 51.5649V57.6915L479.275 63.0011L480.907 64.8391L483.049 63.0011L491.005 70.6593L501 60.7547L499.368 59.0189L495.492 62.6948L492.535 59.6315V12.6615L497.634 7.55605L496.104 5.7181L493.554 7.96448L485.599 0L475.706 9.90455L477.337 11.7425L481.111 8.27081L484.783 11.7425V18.3796C482.199 19.9452 479.785 20.7281 477.541 20.7281C475.162 20.7281 472.204 19.9452 468.668 18.3796V1.22531H466.322C465.71 3.33556 464.35 4.39068 462.242 4.39068C460.61 4.39068 458.027 3.67592 454.491 2.24639C451.023 0.748798 448.405 0 446.637 0C443.713 0 441.096 1.25934 438.784 3.77802C436.472 6.29671 435.316 9.01961 435.316 11.9467C435.316 15.8269 437.05 18.8221 440.518 20.9323L441.844 19.2986C439.26 17.4606 437.968 15.2482 437.968 12.6615C437.968 11.3681 438.41 10.2449 439.294 9.2919C440.246 8.33888 441.368 7.86238 442.66 7.86238C444.155 7.86238 446.569 8.44099 449.901 9.59823C453.165 10.6874 455.647 11.232 457.347 11.232C460.406 11.232 463.398 9.15575 466.322 5.00333V61.7758C462.174 59.6656 458.095 58.6104 454.083 58.6104C449.051 58.6104 444.665 60.2782 440.926 63.6138L442.048 68.6171ZM468.668 49.1143C471.184 47.7529 473.768 47.0721 476.42 47.0721C479.207 47.0721 481.995 47.7188 484.783 49.0122V38.3929H468.668V49.1143ZM468.668 30.6326H484.783V20.9323C482.403 22.2257 479.921 22.8724 477.337 22.8724C474.55 22.8724 471.66 22.2257 468.668 20.9323V30.6326Z" fill="black"/>
<path fill-rule="evenodd" clip-rule="evenodd" d="M454.491 53.7092L452.961 54.8324L454.491 56.6704L462.242 50.4417V14.3973L463.67 13.2741L462.548 11.4362L454.491 17.6648V30.02C448.235 30.02 445.107 32.9471 445.107 38.8013C445.107 40.5712 445.481 42.5794 446.229 44.8258L448.779 43.8047C448.371 42.9878 448.167 42.1709 448.167 41.3541C448.167 40.1288 448.507 39.0736 449.187 38.1887C449.935 37.2357 450.921 36.7592 452.145 36.7592C452.893 36.7592 453.675 37.0655 454.491 37.6781V53.7092Z" fill="black"/>
</svg>
