<svg width="471" height="197" viewBox="0 0 471 197" fill="none" xmlns="http://www.w3.org/2000/svg">
<rect x="1" y="30" width="49" height="167" fill="#E5A604" fill-opacity="0.1"/>
<g opacity="0.5" clip-path="url(#clip0)">
<path d="M20.5464 129.57V138.789" stroke="#F9B715" stroke-width="1.33" stroke-miterlimit="10"/>
<path d="M23.5487 126.5C23.5477 127.092 23.3707 127.671 23.04 128.163C22.7093 128.655 22.2399 129.038 21.6909 129.264C21.142 129.489 20.5383 129.548 19.956 129.432C19.3737 129.316 18.839 129.03 18.4195 128.611C18 128.192 17.7146 127.658 17.5992 127.077C17.4838 126.496 17.5438 125.894 17.7714 125.347C17.999 124.8 18.3841 124.333 18.878 124.004C19.3719 123.675 19.9525 123.5 20.5463 123.5C20.9411 123.5 21.3319 123.578 21.6965 123.729C22.0611 123.88 22.3923 124.101 22.6711 124.379C22.95 124.658 23.171 124.989 23.3216 125.353C23.4722 125.716 23.5493 126.106 23.5487 126.5V126.5Z" stroke="#F9B715" stroke-width="1.33" stroke-miterlimit="10"/>
<path d="M23.5567 141.5C23.5567 142.093 23.3803 142.673 23.0497 143.167C22.7192 143.66 22.2493 144.045 21.6996 144.272C21.1499 144.499 20.5451 144.558 19.9615 144.442C19.3779 144.327 18.8419 144.041 18.4212 143.621C18.0004 143.202 17.7139 142.667 17.5978 142.085C17.4818 141.503 17.5413 140.9 17.769 140.352C17.9967 139.804 18.3823 139.335 18.877 139.006C19.3718 138.676 19.9534 138.5 20.5484 138.5C21.3463 138.5 22.1114 138.816 22.6756 139.379C23.2398 139.941 23.5567 140.704 23.5567 141.5Z" stroke="#F9B715" stroke-width="1.33" stroke-miterlimit="10"/>
<path d="M34.5318 129.491C34.5318 130.085 34.3554 130.665 34.0248 131.158C33.6943 131.651 33.2244 132.036 32.6747 132.263C32.125 132.49 31.5201 132.549 30.9366 132.434C30.353 132.318 29.817 132.032 29.3963 131.613C28.9755 131.193 28.689 130.658 28.5729 130.076C28.4569 129.495 28.5164 128.891 28.7441 128.343C28.9718 127.795 29.3574 127.326 29.8521 126.997C30.3469 126.667 30.9285 126.491 31.5235 126.491C32.3214 126.491 33.0865 126.807 33.6507 127.37C34.2149 127.932 34.5318 128.696 34.5318 129.491Z" stroke="#F9B715" stroke-width="1.33" stroke-miterlimit="10"/>
<path d="M20.5112 138.543L20.7028 138.511L20.803 137.731C21.0022 136.939 21.4606 136.235 22.1057 135.732C22.7508 135.228 23.5458 134.954 24.3649 134.951H27.6641C28.3541 134.949 29.0232 134.714 29.5618 134.284C30.1004 133.854 30.4768 133.254 30.6293 132.583L30.7045 132.283" stroke="#E5A604" stroke-width="1.33"/>
</g>
<g opacity="0.5" clip-path="url(#clip1)">
<path d="M36.3992 90.8571C36.3992 94.8275 33.1711 98.0493 29.1852 98.0493C25.1992 98.0493 21.9712 94.8275 21.9712 90.8571C21.9712 86.8868 25.1992 83.665 29.1852 83.665C33.1711 83.665 36.3992 86.8868 36.3992 90.8571Z" stroke="#F9B715" stroke-width="1.33"/>
<line y1="-0.665" x2="12.7456" y2="-0.665" transform="matrix(0.708089 -0.706124 0.708089 0.706124 16.0054 105)" stroke="#F9B715" stroke-width="1.33"/>
</g>
<path d="M470 197V7C470 3.68629 467.314 1 464 1H7C3.68629 1 1 3.68629 1 7L1 197" stroke="black"/>
<path d="M15.5 12.5L22.5 19.5" stroke="black"/>
<path d="M22.5 12.5L15.5 19.5" stroke="black"/>
<path d="M470 30L1 30" stroke="black"/>
<path d="M57.416 47.5449V46.7246H58.5645L59.209 44.3164H57.416V43.502H59.4141L60.0996 40.9062H60.9551L60.2695 43.502H61.9277L62.6426 40.9062H63.498L62.7949 43.502H63.7793V44.3164H62.5664L61.9277 46.7246H63.7793V47.5449H61.6992L61.0312 50H60.1641L60.8438 47.5449H59.209L58.5645 50H57.6973L58.3477 47.5449H57.416ZM59.4258 46.7246H61.0664L61.7285 44.3164H60.0527L59.4258 46.7246ZM64.623 47.5449V46.7246H65.7715L66.416 44.3164H64.623V43.502H66.6211L67.3066 40.9062H68.1621L67.4766 43.502H69.1348L69.8496 40.9062H70.7051L70.002 43.502H70.9863V44.3164H69.7734L69.1348 46.7246H70.9863V47.5449H68.9062L68.2383 50H67.3711L68.0508 47.5449H66.416L65.7715 50H64.9043L65.5547 47.5449H64.623ZM66.6328 46.7246H68.2734L68.9355 44.3164H67.2598L66.6328 46.7246ZM79.9043 50H78.9492V40.9062H80.1387L82.2363 46.8945L84.334 40.9062H85.4941V50H84.4043V44.2051L84.4336 43.4082H84.4043L84.1465 44.2051L82.7402 48.1836H81.5566L80.1328 44.2051L79.9043 43.4082H79.875L79.9043 44.2051V50ZM89.1445 49.7363L86.1211 43.4551H87.3223L89.7305 48.3652L91.7461 43.4551H92.8418L90.3047 49.5371C89.7695 50.8223 89.2598 51.6758 88.7754 52.0977C88.2949 52.5195 87.6719 52.7305 86.9062 52.7305C86.5742 52.7305 86.2773 52.7012 86.0156 52.6426V51.6816C86.3164 51.7754 86.6035 51.8223 86.877 51.8223C87.2285 51.8223 87.541 51.7539 87.8145 51.6172C88.0879 51.4805 88.3379 51.2383 88.5645 50.8906C88.791 50.543 88.9512 50.2422 89.0449 49.9883L89.1445 49.7363ZM101.25 50V40.9062H103.025C104.092 40.9062 104.805 40.9883 105.164 41.1523C105.527 41.3125 105.799 41.5508 105.979 41.8672C106.158 42.1836 106.248 42.5449 106.248 42.9512C106.248 43.2715 106.195 43.5762 106.09 43.8652C105.984 44.1504 105.828 44.4121 105.621 44.6504C105.414 44.8848 105.113 45.1074 104.719 45.3184C105.441 45.6074 105.93 45.9629 106.184 46.3848C106.441 46.8066 106.57 47.2285 106.57 47.6504C106.57 48.0527 106.461 48.4434 106.242 48.8223C106.027 49.2012 105.725 49.4922 105.334 49.6953C104.943 49.8984 104.318 50 103.459 50H101.25ZM102.434 45.002H103.676C104.078 44.834 104.371 44.6582 104.555 44.4746C104.742 44.2871 104.881 44.0801 104.971 43.8535C105.064 43.623 105.111 43.3711 105.111 43.0977C105.111 42.668 104.984 42.3477 104.73 42.1367C104.48 41.9258 103.99 41.8203 103.26 41.8203H102.434V45.002ZM102.434 49.0918H103.553C104.178 49.0918 104.639 48.9453 104.936 48.6523C105.236 48.3555 105.387 48 105.387 47.5859C105.387 47.2812 105.305 47.002 105.141 46.748C104.977 46.4902 104.723 46.2871 104.379 46.1387C104.035 45.9863 103.496 45.9102 102.762 45.9102H102.434V49.0918ZM110.115 50V41.457H108.158V40.543H111.205V49.0918H113.25V50H110.115ZM118.26 50.1816C117.322 50.1816 116.572 49.8555 116.01 49.2031C115.447 48.5469 115.166 47.7207 115.166 46.7246C115.166 45.7285 115.447 44.9043 116.01 44.252C116.572 43.5996 117.322 43.2734 118.26 43.2734C119.193 43.2734 119.941 43.5996 120.504 44.252C121.066 44.9043 121.348 45.7285 121.348 46.7246C121.348 47.7207 121.066 48.5469 120.504 49.2031C119.941 49.8555 119.193 50.1816 118.26 50.1816ZM118.26 49.2734C118.842 49.2734 119.305 49.0469 119.648 48.5938C119.992 48.1406 120.164 47.5176 120.164 46.7246C120.164 45.9355 119.992 45.3145 119.648 44.8613C119.305 44.4082 118.842 44.1816 118.26 44.1816C117.674 44.1816 117.209 44.4082 116.865 44.8613C116.521 45.3145 116.35 45.9355 116.35 46.7246C116.35 47.5176 116.521 48.1406 116.865 48.5938C117.209 49.0469 117.674 49.2734 118.26 49.2734ZM127.143 48.5293C126.811 49.0762 126.41 49.4883 125.941 49.7656C125.477 50.043 125.049 50.1816 124.658 50.1816C124.111 50.1816 123.619 49.9453 123.182 49.4727C122.748 49 122.531 48.2832 122.531 47.3223C122.531 46.5645 122.676 45.8887 122.965 45.2949C123.254 44.6973 123.641 44.2266 124.125 43.8828C124.609 43.5352 125.209 43.3613 125.924 43.3613C126.131 43.3613 126.443 43.3828 126.861 43.4258C126.924 43.4336 127.018 43.4434 127.143 43.4551H128.238V48.084C128.238 49.1855 128.223 49.8574 128.191 50.0996C128.164 50.3457 128.117 50.5938 128.051 50.8438C127.895 51.4258 127.537 51.8848 126.979 52.2207C126.424 52.5566 125.752 52.7246 124.963 52.7246C124.17 52.7246 123.367 52.5215 122.555 52.1152V51.0137C122.863 51.2246 123.242 51.4102 123.691 51.5703C124.145 51.7344 124.582 51.8164 125.004 51.8164C125.336 51.8164 125.65 51.7637 125.947 51.6582C126.244 51.5527 126.484 51.4004 126.668 51.2012C126.852 51.002 126.977 50.7695 127.043 50.5039C127.109 50.2422 127.143 49.8926 127.143 49.4551V48.5293ZM127.143 47.2344V44.4277C126.756 44.3262 126.396 44.2754 126.064 44.2754C125.393 44.2754 124.832 44.5352 124.383 45.0547C123.938 45.5742 123.715 46.2812 123.715 47.1758C123.715 47.8242 123.836 48.3145 124.078 48.6465C124.324 48.9746 124.604 49.1387 124.916 49.1387C125.256 49.1387 125.631 48.9668 126.041 48.623C126.451 48.2793 126.818 47.8164 127.143 47.2344ZM138.492 46.6836V50H137.309V40.9062H139.57C140.5 40.9062 141.178 41.0117 141.604 41.2227C142.029 41.4297 142.355 41.7344 142.582 42.1367C142.809 42.5391 142.922 42.9883 142.922 43.4844C142.922 44.0664 142.77 44.6094 142.465 45.1133C142.16 45.6172 141.734 46.0059 141.188 46.2793C140.645 46.5488 139.906 46.6836 138.973 46.6836H138.492ZM138.492 45.7754H139.002C139.732 45.7754 140.275 45.6816 140.631 45.4941C140.986 45.3027 141.26 45.0293 141.451 44.6738C141.643 44.3184 141.738 43.9336 141.738 43.5195C141.738 42.9961 141.566 42.582 141.223 42.2773C140.883 41.9727 140.209 41.8203 139.201 41.8203H138.492V45.7754ZM147.088 50.1816C146.15 50.1816 145.4 49.8555 144.838 49.2031C144.275 48.5469 143.994 47.7207 143.994 46.7246C143.994 45.7285 144.275 44.9043 144.838 44.252C145.4 43.5996 146.15 43.2734 147.088 43.2734C148.021 43.2734 148.77 43.5996 149.332 44.252C149.895 44.9043 150.176 45.7285 150.176 46.7246C150.176 47.7207 149.895 48.5469 149.332 49.2031C148.77 49.8555 148.021 50.1816 147.088 50.1816ZM147.088 49.2734C147.67 49.2734 148.133 49.0469 148.477 48.5938C148.82 48.1406 148.992 47.5176 148.992 46.7246C148.992 45.9355 148.82 45.3145 148.477 44.8613C148.133 44.4082 147.67 44.1816 147.088 44.1816C146.502 44.1816 146.037 44.4082 145.693 44.8613C145.35 45.3145 145.178 45.9355 145.178 46.7246C145.178 47.5176 145.35 48.1406 145.693 48.5938C146.037 49.0469 146.502 49.2734 147.088 49.2734ZM151.676 49.6543V48.5C152.113 48.7852 152.576 48.9863 153.064 49.1035C153.553 49.2168 153.967 49.2734 154.307 49.2734C154.857 49.2734 155.254 49.1855 155.496 49.0098C155.738 48.8301 155.859 48.6074 155.859 48.3418C155.859 48.166 155.803 48.0156 155.689 47.8906C155.576 47.7656 155.295 47.6113 154.846 47.4277L154.471 47.2754L153.715 46.9766C152.902 46.6602 152.391 46.3672 152.18 46.0977C151.965 45.832 151.857 45.5078 151.857 45.125C151.857 44.5859 152.064 44.1426 152.479 43.7949C152.896 43.4473 153.572 43.2734 154.506 43.2734C155.205 43.2734 155.867 43.375 156.492 43.5781V44.5684C155.773 44.3105 155.098 44.1816 154.465 44.1816C154.004 44.1816 153.643 44.2637 153.381 44.4277C153.123 44.5879 152.994 44.7891 152.994 45.0312C152.994 45.2656 153.107 45.4531 153.334 45.5938C153.557 45.7344 153.92 45.8965 154.424 46.0801L155.162 46.3496C155.838 46.5957 156.312 46.8633 156.586 47.1523C156.859 47.4414 156.996 47.8027 156.996 48.2363C156.996 48.8027 156.777 49.2695 156.34 49.6367C155.906 50 155.211 50.1816 154.254 50.1816C153.418 50.1816 152.559 50.0059 151.676 49.6543ZM164.279 49.7363C163.768 49.9512 163.396 50.0781 163.166 50.1172C162.936 50.1602 162.713 50.1816 162.498 50.1816C162.041 50.1816 161.623 50.0938 161.244 49.918C160.865 49.7422 160.578 49.4824 160.383 49.1387C160.191 48.7949 160.096 48.2637 160.096 47.5449V44.9082H158.461V44H160.096V41.3633H161.186V44H164.098V44.9082H161.186V47.5273C161.186 48.0547 161.248 48.4277 161.373 48.6465C161.498 48.8613 161.664 49.0195 161.871 49.1211C162.082 49.2227 162.33 49.2734 162.615 49.2734C163.143 49.2734 163.697 49.1074 164.279 48.7754V49.7363ZM58.0078 82V81.0918H60.0059V73.8203H58.0078V72.9062H63.1875V73.8203H61.1895V81.0918H63.1875V82H58.0078ZM65.1152 82V75.4551H66.2051V76.8848C66.5176 76.3809 66.8945 75.9863 67.3359 75.7012C67.7773 75.416 68.2188 75.2734 68.6602 75.2734C69.0469 75.2734 69.3984 75.377 69.7148 75.584C70.0312 75.7871 70.252 76.0547 70.377 76.3867C70.5059 76.7188 70.5703 77.3711 70.5703 78.3438V82H69.4805V78.209C69.4805 77.5801 69.4492 77.166 69.3867 76.9668C69.3281 76.7637 69.2168 76.5977 69.0527 76.4688C68.8926 76.3398 68.7168 76.2754 68.5254 76.2754C68.1426 76.2754 67.7305 76.457 67.2891 76.8203C66.8516 77.1836 66.4902 77.6387 66.2051 78.1855V82H65.1152ZM85.002 81.7363C84.4902 81.9512 84.1191 82.0781 83.8887 82.1172C83.6582 82.1602 83.4355 82.1816 83.2207 82.1816C82.7637 82.1816 82.3457 82.0938 81.9668 81.918C81.5879 81.7422 81.3008 81.4824 81.1055 81.1387C80.9141 80.7949 80.8184 80.2637 80.8184 79.5449V76.9082H79.1836V76H80.8184V73.3633H81.9082V76H84.8203V76.9082H81.9082V79.5273C81.9082 80.0547 81.9707 80.4277 82.0957 80.6465C82.2207 80.8613 82.3867 81.0195 82.5938 81.1211C82.8047 81.2227 83.0527 81.2734 83.3379 81.2734C83.8652 81.2734 84.4199 81.1074 85.002 80.7754V81.7363ZM86.7363 82V72.543H87.8262V76.8848C88.1387 76.3809 88.5156 75.9863 88.957 75.7012C89.3984 75.416 89.8398 75.2734 90.2812 75.2734C90.6523 75.2734 90.9902 75.3691 91.2949 75.5605C91.6035 75.748 91.8184 75.9766 91.9395 76.2461C92.0371 76.4531 92.1035 76.6738 92.1387 76.9082C92.1738 77.1387 92.1914 77.6172 92.1914 78.3438V82H91.1016V78.209C91.1016 77.5801 91.0703 77.166 91.0078 76.9668C90.9492 76.7637 90.8379 76.5977 90.6738 76.4688C90.5137 76.3398 90.3379 76.2754 90.1465 76.2754C89.7637 76.2754 89.3516 76.457 88.9102 76.8203C88.4727 77.1836 88.1113 77.6387 87.8262 78.1855V82H86.7363ZM95.7773 82V76.3633H93.9609V75.4551H96.8672V81.0918H98.6895V82H95.7773ZM95.5957 73.0938C95.5957 72.8477 95.6797 72.6641 95.8477 72.543C96.0156 72.4219 96.1738 72.3613 96.3223 72.3613C96.4746 72.3613 96.6348 72.4219 96.8027 72.543C96.9707 72.6641 97.0547 72.8477 97.0547 73.0938C97.0547 73.3359 96.9707 73.5176 96.8027 73.6387C96.6348 73.7598 96.4746 73.8203 96.3223 73.8203C96.1738 73.8203 96.0156 73.7598 95.8477 73.6387C95.6797 73.5176 95.5957 73.3359 95.5957 73.0938ZM101.227 81.6543V80.5C101.664 80.7852 102.127 80.9863 102.615 81.1035C103.104 81.2168 103.518 81.2734 103.857 81.2734C104.408 81.2734 104.805 81.1855 105.047 81.0098C105.289 80.8301 105.41 80.6074 105.41 80.3418C105.41 80.166 105.354 80.0156 105.24 79.8906C105.127 79.7656 104.846 79.6113 104.396 79.4277L104.021 79.2754L103.266 78.9766C102.453 78.6602 101.941 78.3672 101.73 78.0977C101.516 77.832 101.408 77.5078 101.408 77.125C101.408 76.5859 101.615 76.1426 102.029 75.7949C102.447 75.4473 103.123 75.2734 104.057 75.2734C104.756 75.2734 105.418 75.375 106.043 75.5781V76.5684C105.324 76.3105 104.648 76.1816 104.016 76.1816C103.555 76.1816 103.193 76.2637 102.932 76.4277C102.674 76.5879 102.545 76.7891 102.545 77.0312C102.545 77.2656 102.658 77.4531 102.885 77.5938C103.107 77.7344 103.471 77.8965 103.975 78.0801L104.713 78.3496C105.389 78.5957 105.863 78.8633 106.137 79.1523C106.41 79.4414 106.547 79.8027 106.547 80.2363C106.547 80.8027 106.328 81.2695 105.891 81.6367C105.457 82 104.762 82.1816 103.805 82.1816C102.969 82.1816 102.109 82.0059 101.227 81.6543ZM118.26 82.1816C117.322 82.1816 116.572 81.8555 116.01 81.2031C115.447 80.5469 115.166 79.7207 115.166 78.7246C115.166 77.7285 115.447 76.9043 116.01 76.252C116.572 75.5996 117.322 75.2734 118.26 75.2734C119.193 75.2734 119.941 75.5996 120.504 76.252C121.066 76.9043 121.348 77.7285 121.348 78.7246C121.348 79.7207 121.066 80.5469 120.504 81.2031C119.941 81.8555 119.193 82.1816 118.26 82.1816ZM118.26 81.2734C118.842 81.2734 119.305 81.0469 119.648 80.5938C119.992 80.1406 120.164 79.5176 120.164 78.7246C120.164 77.9355 119.992 77.3145 119.648 76.8613C119.305 76.4082 118.842 76.1816 118.26 76.1816C117.674 76.1816 117.209 76.4082 116.865 76.8613C116.521 77.3145 116.35 77.9355 116.35 78.7246C116.35 79.5176 116.521 80.1406 116.865 80.5938C117.209 81.0469 117.674 81.2734 118.26 81.2734ZM122.771 82V75.4551H123.861V76.8848C124.174 76.3809 124.551 75.9863 124.992 75.7012C125.434 75.416 125.875 75.2734 126.316 75.2734C126.703 75.2734 127.055 75.377 127.371 75.584C127.688 75.7871 127.908 76.0547 128.033 76.3867C128.162 76.7188 128.227 77.3711 128.227 78.3438V82H127.137V78.209C127.137 77.5801 127.105 77.166 127.043 76.9668C126.984 76.7637 126.873 76.5977 126.709 76.4688C126.549 76.3398 126.373 76.2754 126.182 76.2754C125.799 76.2754 125.387 76.457 124.945 76.8203C124.508 77.1836 124.146 77.6387 123.861 78.1855V82H122.771ZM135.422 81.5664C134.551 81.9805 133.727 82.1875 132.949 82.1875C132.359 82.1875 131.832 82.041 131.367 81.748C130.902 81.4551 130.529 81.0371 130.248 80.4941C129.971 79.9473 129.832 79.3633 129.832 78.7422C129.832 78.1445 129.965 77.5703 130.23 77.0195C130.496 76.4688 130.867 76.041 131.344 75.7363C131.82 75.4277 132.352 75.2734 132.938 75.2734C133.715 75.2734 134.338 75.5508 134.807 76.1055C135.279 76.6602 135.516 77.5156 135.516 78.6719V78.9062H131.004C131.004 79.3594 131.098 79.7734 131.285 80.1484C131.477 80.5234 131.727 80.8047 132.035 80.9922C132.344 81.1797 132.695 81.2734 133.09 81.2734C133.793 81.2734 134.57 81.0391 135.422 80.5703V81.5664ZM131.068 78.0918H134.332V77.9336C134.332 77.3984 134.201 76.9727 133.939 76.6562C133.678 76.3398 133.328 76.1816 132.891 76.1816C132.449 76.1816 132.066 76.3438 131.742 76.668C131.422 76.9883 131.197 77.4629 131.068 78.0918ZM144.668 82L143.602 75.4551H144.615L145.236 79.4395L145.4 80.3652L145.559 79.4395L146.602 75.4551H147.58L148.758 79.4395L148.963 80.3652L149.098 79.4395L149.725 75.4551H150.562L149.502 82H148.482L147.229 77.7871L147.029 76.8613H147L146.818 77.7812L145.729 82H144.668ZM157.043 81.5664C156.172 81.9805 155.348 82.1875 154.57 82.1875C153.98 82.1875 153.453 82.041 152.988 81.748C152.523 81.4551 152.15 81.0371 151.869 80.4941C151.592 79.9473 151.453 79.3633 151.453 78.7422C151.453 78.1445 151.586 77.5703 151.852 77.0195C152.117 76.4688 152.488 76.041 152.965 75.7363C153.441 75.4277 153.973 75.2734 154.559 75.2734C155.336 75.2734 155.959 75.5508 156.428 76.1055C156.9 76.6602 157.137 77.5156 157.137 78.6719V78.9062H152.625C152.625 79.3594 152.719 79.7734 152.906 80.1484C153.098 80.5234 153.348 80.8047 153.656 80.9922C153.965 81.1797 154.316 81.2734 154.711 81.2734C155.414 81.2734 156.191 81.0391 157.043 80.5703V81.5664ZM152.689 78.0918H155.953V77.9336C155.953 77.3984 155.822 76.9727 155.561 76.6562C155.299 76.3398 154.949 76.1816 154.512 76.1816C154.07 76.1816 153.688 76.3438 153.363 76.668C153.043 76.9883 152.818 77.4629 152.689 78.0918ZM160.383 76.6387V75.9062C160.664 75.832 160.877 75.7266 161.021 75.5898C161.17 75.4531 161.287 75.2793 161.373 75.0684C161.463 74.8535 161.508 74.5938 161.508 74.2891C161.145 74.2891 160.877 74.1875 160.705 73.9844C160.533 73.7773 160.447 73.5586 160.447 73.3281C160.447 73.0547 160.543 72.8262 160.734 72.6426C160.926 72.4551 161.148 72.3613 161.402 72.3613C161.73 72.3613 162.014 72.5039 162.252 72.7891C162.49 73.0703 162.609 73.457 162.609 73.9492C162.609 74.3828 162.516 74.7891 162.328 75.168C162.141 75.5469 161.885 75.8711 161.561 76.1406C161.24 76.4102 160.848 76.5762 160.383 76.6387ZM167.771 82V73.457H165.814V72.543H168.861V81.0918H170.906V82H167.771ZM174.979 82V73.457H173.021V72.543H176.068V81.0918H178.113V82H174.979ZM188.643 76.9258C188.979 76.3789 189.379 75.9668 189.844 75.6895C190.309 75.4121 190.736 75.2734 191.127 75.2734C191.674 75.2734 192.166 75.5098 192.604 75.9824C193.041 76.4551 193.26 77.1719 193.26 78.1328C193.26 78.8906 193.113 79.5684 192.82 80.166C192.531 80.7598 192.145 81.2305 191.66 81.5781C191.176 81.9219 190.576 82.0938 189.861 82.0938C189.658 82.0938 189.346 82.0723 188.924 82.0293C188.861 82.0215 188.768 82.0117 188.643 82H187.553V72.543H188.643V76.9258ZM188.643 78.2207V81.0273C189.037 81.1289 189.4 81.1797 189.732 81.1797C190.393 81.1797 190.947 80.9219 191.396 80.4062C191.85 79.8867 192.076 79.1777 192.076 78.2793C192.076 77.627 191.953 77.1367 191.707 76.8086C191.461 76.4805 191.182 76.3164 190.869 76.3164C190.529 76.3164 190.154 76.4883 189.744 76.832C189.338 77.1758 188.971 77.6387 188.643 78.2207ZM200.285 81.5664C199.414 81.9805 198.59 82.1875 197.812 82.1875C197.223 82.1875 196.695 82.041 196.23 81.748C195.766 81.4551 195.393 81.0371 195.111 80.4941C194.834 79.9473 194.695 79.3633 194.695 78.7422C194.695 78.1445 194.828 77.5703 195.094 77.0195C195.359 76.4688 195.73 76.041 196.207 75.7363C196.684 75.4277 197.215 75.2734 197.801 75.2734C198.578 75.2734 199.201 75.5508 199.67 76.1055C200.143 76.6602 200.379 77.5156 200.379 78.6719V78.9062H195.867C195.867 79.3594 195.961 79.7734 196.148 80.1484C196.34 80.5234 196.59 80.8047 196.898 80.9922C197.207 81.1797 197.559 81.2734 197.953 81.2734C198.656 81.2734 199.434 81.0391 200.285 80.5703V81.5664ZM195.932 78.0918H199.195V77.9336C199.195 77.3984 199.064 76.9727 198.803 76.6562C198.541 76.3398 198.191 76.1816 197.754 76.1816C197.312 76.1816 196.93 76.3438 196.605 76.668C196.285 76.9883 196.061 77.4629 195.932 78.0918ZM211.014 82V73.457H209.057V72.543H212.104V81.0918H214.148V82H211.014ZM219.158 82.1816C218.221 82.1816 217.471 81.8555 216.908 81.2031C216.346 80.5469 216.064 79.7207 216.064 78.7246C216.064 77.7285 216.346 76.9043 216.908 76.252C217.471 75.5996 218.221 75.2734 219.158 75.2734C220.092 75.2734 220.84 75.5996 221.402 76.252C221.965 76.9043 222.246 77.7285 222.246 78.7246C222.246 79.7207 221.965 80.5469 221.402 81.2031C220.84 81.8555 220.092 82.1816 219.158 82.1816ZM219.158 81.2734C219.74 81.2734 220.203 81.0469 220.547 80.5938C220.891 80.1406 221.062 79.5176 221.062 78.7246C221.062 77.9355 220.891 77.3145 220.547 76.8613C220.203 76.4082 219.74 76.1816 219.158 76.1816C218.572 76.1816 218.107 76.4082 217.764 76.8613C217.42 77.3145 217.248 77.9355 217.248 78.7246C217.248 79.5176 217.42 80.1406 217.764 80.5938C218.107 81.0469 218.572 81.2734 219.158 81.2734ZM226.365 82.1816C225.428 82.1816 224.678 81.8555 224.115 81.2031C223.553 80.5469 223.271 79.7207 223.271 78.7246C223.271 77.7285 223.553 76.9043 224.115 76.252C224.678 75.5996 225.428 75.2734 226.365 75.2734C227.299 75.2734 228.047 75.5996 228.609 76.252C229.172 76.9043 229.453 77.7285 229.453 78.7246C229.453 79.7207 229.172 80.5469 228.609 81.2031C228.047 81.8555 227.299 82.1816 226.365 82.1816ZM226.365 81.2734C226.947 81.2734 227.41 81.0469 227.754 80.5938C228.098 80.1406 228.27 79.5176 228.27 78.7246C228.27 77.9355 228.098 77.3145 227.754 76.8613C227.41 76.4082 226.947 76.1816 226.365 76.1816C225.779 76.1816 225.314 76.4082 224.971 76.8613C224.627 77.3145 224.455 77.9355 224.455 78.7246C224.455 79.5176 224.627 80.1406 224.971 80.5938C225.314 81.0469 225.779 81.2734 226.365 81.2734ZM231.17 82V72.543H232.26V78.4844L235.406 75.4551H236.859L233.719 78.4844L236.941 82H235.441L232.26 78.4844V82H231.17ZM239.918 82V76.3633H238.102V75.4551H241.008V81.0918H242.83V82H239.918ZM239.736 73.0938C239.736 72.8477 239.82 72.6641 239.988 72.543C240.156 72.4219 240.314 72.3613 240.463 72.3613C240.615 72.3613 240.775 72.4219 240.943 72.543C241.111 72.6641 241.195 72.8477 241.195 73.0938C241.195 73.3359 241.111 73.5176 240.943 73.6387C240.775 73.7598 240.615 73.8203 240.463 73.8203C240.314 73.8203 240.156 73.7598 239.988 73.6387C239.82 73.5176 239.736 73.3359 239.736 73.0938ZM245.291 82V75.4551H246.381V76.8848C246.693 76.3809 247.07 75.9863 247.512 75.7012C247.953 75.416 248.395 75.2734 248.836 75.2734C249.223 75.2734 249.574 75.377 249.891 75.584C250.207 75.7871 250.428 76.0547 250.553 76.3867C250.682 76.7188 250.746 77.3711 250.746 78.3438V82H249.656V78.209C249.656 77.5801 249.625 77.166 249.562 76.9668C249.504 76.7637 249.393 76.5977 249.229 76.4688C249.068 76.3398 248.893 76.2754 248.701 76.2754C248.318 76.2754 247.906 76.457 247.465 76.8203C247.027 77.1836 246.666 77.6387 246.381 78.1855V82H245.291ZM256.869 80.5293C256.537 81.0762 256.137 81.4883 255.668 81.7656C255.203 82.043 254.775 82.1816 254.385 82.1816C253.838 82.1816 253.346 81.9453 252.908 81.4727C252.475 81 252.258 80.2832 252.258 79.3223C252.258 78.5645 252.402 77.8887 252.691 77.2949C252.98 76.6973 253.367 76.2266 253.852 75.8828C254.336 75.5352 254.936 75.3613 255.65 75.3613C255.857 75.3613 256.17 75.3828 256.588 75.4258C256.65 75.4336 256.744 75.4434 256.869 75.4551H257.965V80.084C257.965 81.1855 257.949 81.8574 257.918 82.0996C257.891 82.3457 257.844 82.5938 257.777 82.8438C257.621 83.4258 257.264 83.8848 256.705 84.2207C256.15 84.5566 255.479 84.7246 254.689 84.7246C253.896 84.7246 253.094 84.5215 252.281 84.1152V83.0137C252.59 83.2246 252.969 83.4102 253.418 83.5703C253.871 83.7344 254.309 83.8164 254.73 83.8164C255.062 83.8164 255.377 83.7637 255.674 83.6582C255.971 83.5527 256.211 83.4004 256.395 83.2012C256.578 83.002 256.703 82.7695 256.77 82.5039C256.836 82.2422 256.869 81.8926 256.869 81.4551V80.5293ZM256.869 79.2344V76.4277C256.482 76.3262 256.123 76.2754 255.791 76.2754C255.119 76.2754 254.559 76.5352 254.109 77.0547C253.664 77.5742 253.441 78.2812 253.441 79.1758C253.441 79.8242 253.562 80.3145 253.805 80.6465C254.051 80.9746 254.33 81.1387 254.643 81.1387C254.982 81.1387 255.357 80.9668 255.768 80.623C256.178 80.2793 256.545 79.8164 256.869 79.2344ZM271.213 80.5293C270.881 81.0762 270.48 81.4883 270.012 81.7656C269.547 82.043 269.119 82.1816 268.729 82.1816C268.182 82.1816 267.689 81.9453 267.252 81.4727C266.818 81 266.602 80.2832 266.602 79.3223C266.602 78.5645 266.746 77.8887 267.035 77.2949C267.324 76.6973 267.711 76.2266 268.195 75.8828C268.68 75.5352 269.279 75.3613 269.994 75.3613C270.201 75.3613 270.514 75.3828 270.932 75.4258C270.994 75.4336 271.088 75.4434 271.213 75.4551H272.309V80.0781C272.309 80.8672 272.391 81.5078 272.555 82H271.418C271.332 81.6406 271.264 81.1504 271.213 80.5293ZM271.213 79.2344V76.4277C270.826 76.3262 270.467 76.2754 270.135 76.2754C269.463 76.2754 268.902 76.5352 268.453 77.0547C268.008 77.5742 267.785 78.2812 267.785 79.1758C267.785 79.8242 267.906 80.3145 268.148 80.6465C268.395 80.9746 268.674 81.1387 268.986 81.1387C269.326 81.1387 269.701 80.9668 270.111 80.623C270.521 80.2793 270.889 79.8164 271.213 79.2344ZM279.592 81.7363C279.08 81.9512 278.709 82.0781 278.479 82.1172C278.248 82.1602 278.025 82.1816 277.811 82.1816C277.354 82.1816 276.936 82.0938 276.557 81.918C276.178 81.7422 275.891 81.4824 275.695 81.1387C275.504 80.7949 275.408 80.2637 275.408 79.5449V76.9082H273.773V76H275.408V73.3633H276.498V76H279.41V76.9082H276.498V79.5273C276.498 80.0547 276.561 80.4277 276.686 80.6465C276.811 80.8613 276.977 81.0195 277.184 81.1211C277.395 81.2227 277.643 81.2734 277.928 81.2734C278.455 81.2734 279.01 81.1074 279.592 80.7754V81.7363ZM288.533 82V72.543H289.623V76.8848C289.936 76.3809 290.312 75.9863 290.754 75.7012C291.195 75.416 291.637 75.2734 292.078 75.2734C292.449 75.2734 292.787 75.3691 293.092 75.5605C293.4 75.748 293.615 75.9766 293.736 76.2461C293.834 76.4531 293.9 76.6738 293.936 76.9082C293.971 77.1387 293.988 77.6172 293.988 78.3438V82H292.898V78.209C292.898 77.5801 292.867 77.166 292.805 76.9668C292.746 76.7637 292.635 76.5977 292.471 76.4688C292.311 76.3398 292.135 76.2754 291.943 76.2754C291.561 76.2754 291.148 76.457 290.707 76.8203C290.27 77.1836 289.908 77.6387 289.623 78.1855V82H288.533ZM298.436 82.1816C297.498 82.1816 296.748 81.8555 296.186 81.2031C295.623 80.5469 295.342 79.7207 295.342 78.7246C295.342 77.7285 295.623 76.9043 296.186 76.252C296.748 75.5996 297.498 75.2734 298.436 75.2734C299.369 75.2734 300.117 75.5996 300.68 76.252C301.242 76.9043 301.523 77.7285 301.523 78.7246C301.523 79.7207 301.242 80.5469 300.68 81.2031C300.117 81.8555 299.369 82.1816 298.436 82.1816ZM298.436 81.2734C299.018 81.2734 299.48 81.0469 299.824 80.5938C300.168 80.1406 300.34 79.5176 300.34 78.7246C300.34 77.9355 300.168 77.3145 299.824 76.8613C299.48 76.4082 299.018 76.1816 298.436 76.1816C297.85 76.1816 297.385 76.4082 297.041 76.8613C296.697 77.3145 296.525 77.9355 296.525 78.7246C296.525 79.5176 296.697 80.1406 297.041 80.5938C297.385 81.0469 297.85 81.2734 298.436 81.2734ZM303.223 82L302.156 75.4551H303.17L303.791 79.4395L303.955 80.3652L304.113 79.4395L305.156 75.4551H306.135L307.312 79.4395L307.518 80.3652L307.652 79.4395L308.279 75.4551H309.117L308.057 82H307.037L305.783 77.7871L305.584 76.8613H305.555L305.373 77.7812L304.283 82H303.223ZM318.041 82H316.781L319.354 78.5723L316.951 75.4551H318.346L320.051 77.6523L321.709 75.4551H322.945L320.672 78.4668L323.373 82H321.973L319.98 79.3926L318.041 82ZM333.609 82V76.3633H331.793V75.4551H334.699V81.0918H336.521V82H333.609ZM333.428 73.0938C333.428 72.8477 333.512 72.6641 333.68 72.543C333.848 72.4219 334.006 72.3613 334.154 72.3613C334.307 72.3613 334.467 72.4219 334.635 72.543C334.803 72.6641 334.887 72.8477 334.887 73.0938C334.887 73.3359 334.803 73.5176 334.635 73.6387C334.467 73.7598 334.307 73.8203 334.154 73.8203C334.006 73.8203 333.848 73.7598 333.68 73.6387C333.512 73.5176 333.428 73.3359 333.428 73.0938ZM338.982 82V75.4551H340.072V76.8848C340.385 76.3809 340.762 75.9863 341.203 75.7012C341.645 75.416 342.086 75.2734 342.527 75.2734C342.914 75.2734 343.266 75.377 343.582 75.584C343.898 75.7871 344.119 76.0547 344.244 76.3867C344.373 76.7188 344.438 77.3711 344.438 78.3438V82H343.348V78.209C343.348 77.5801 343.316 77.166 343.254 76.9668C343.195 76.7637 343.084 76.5977 342.92 76.4688C342.76 76.3398 342.584 76.2754 342.393 76.2754C342.01 76.2754 341.598 76.457 341.156 76.8203C340.719 77.1836 340.357 77.6387 340.072 78.1855V82H338.982ZM351.662 81.7363C351.15 81.9512 350.779 82.0781 350.549 82.1172C350.318 82.1602 350.096 82.1816 349.881 82.1816C349.424 82.1816 349.006 82.0938 348.627 81.918C348.248 81.7422 347.961 81.4824 347.766 81.1387C347.574 80.7949 347.479 80.2637 347.479 79.5449V76.9082H345.844V76H347.479V73.3633H348.568V76H351.48V76.9082H348.568V79.5273C348.568 80.0547 348.631 80.4277 348.756 80.6465C348.881 80.8613 349.047 81.0195 349.254 81.1211C349.465 81.2227 349.713 81.2734 349.998 81.2734C350.525 81.2734 351.08 81.1074 351.662 80.7754V81.7363ZM358.84 81.5664C357.969 81.9805 357.145 82.1875 356.367 82.1875C355.777 82.1875 355.25 82.041 354.785 81.748C354.32 81.4551 353.947 81.0371 353.666 80.4941C353.389 79.9473 353.25 79.3633 353.25 78.7422C353.25 78.1445 353.383 77.5703 353.648 77.0195C353.914 76.4688 354.285 76.041 354.762 75.7363C355.238 75.4277 355.77 75.2734 356.355 75.2734C357.133 75.2734 357.756 75.5508 358.225 76.1055C358.697 76.6602 358.934 77.5156 358.934 78.6719V78.9062H354.422C354.422 79.3594 354.516 79.7734 354.703 80.1484C354.895 80.5234 355.145 80.8047 355.453 80.9922C355.762 81.1797 356.113 81.2734 356.508 81.2734C357.211 81.2734 357.988 81.0391 358.84 80.5703V81.5664ZM354.486 78.0918H357.75V77.9336C357.75 77.3984 357.619 76.9727 357.357 76.6562C357.096 76.3398 356.746 76.1816 356.309 76.1816C355.867 76.1816 355.484 76.3438 355.16 76.668C354.84 76.9883 354.615 77.4629 354.486 78.0918ZM364.975 80.5293C364.643 81.0762 364.242 81.4883 363.773 81.7656C363.309 82.043 362.881 82.1816 362.49 82.1816C361.943 82.1816 361.451 81.9453 361.014 81.4727C360.58 81 360.363 80.2832 360.363 79.3223C360.363 78.5645 360.508 77.8887 360.797 77.2949C361.086 76.6973 361.473 76.2266 361.957 75.8828C362.441 75.5352 363.041 75.3613 363.756 75.3613C363.963 75.3613 364.275 75.3828 364.693 75.4258C364.756 75.4336 364.85 75.4434 364.975 75.4551H366.07V80.084C366.07 81.1855 366.055 81.8574 366.023 82.0996C365.996 82.3457 365.949 82.5938 365.883 82.8438C365.727 83.4258 365.369 83.8848 364.811 84.2207C364.256 84.5566 363.584 84.7246 362.795 84.7246C362.002 84.7246 361.199 84.5215 360.387 84.1152V83.0137C360.695 83.2246 361.074 83.4102 361.523 83.5703C361.977 83.7344 362.414 83.8164 362.836 83.8164C363.168 83.8164 363.482 83.7637 363.779 83.6582C364.076 83.5527 364.316 83.4004 364.5 83.2012C364.684 83.002 364.809 82.7695 364.875 82.5039C364.941 82.2422 364.975 81.8926 364.975 81.4551V80.5293ZM364.975 79.2344V76.4277C364.588 76.3262 364.229 76.2754 363.896 76.2754C363.225 76.2754 362.664 76.5352 362.215 77.0547C361.77 77.5742 361.547 78.2812 361.547 79.1758C361.547 79.8242 361.668 80.3145 361.91 80.6465C362.156 80.9746 362.436 81.1387 362.748 81.1387C363.088 81.1387 363.463 80.9668 363.873 80.623C364.283 80.2793 364.65 79.8164 364.975 79.2344ZM368.367 82V75.4551H369.457V76.8848C369.797 76.3457 370.186 75.9434 370.623 75.6777C371.064 75.4082 371.555 75.2734 372.094 75.2734C372.488 75.2734 372.883 75.334 373.277 75.4551V77.8164H372.229V76.3223C372.045 76.291 371.9 76.2754 371.795 76.2754C371.389 76.2754 370.99 76.4355 370.6 76.7559C370.209 77.0762 369.828 77.5566 369.457 78.1973V82H368.367ZM379.318 80.5293C378.986 81.0762 378.586 81.4883 378.117 81.7656C377.652 82.043 377.225 82.1816 376.834 82.1816C376.287 82.1816 375.795 81.9453 375.357 81.4727C374.924 81 374.707 80.2832 374.707 79.3223C374.707 78.5645 374.852 77.8887 375.141 77.2949C375.43 76.6973 375.816 76.2266 376.301 75.8828C376.785 75.5352 377.385 75.3613 378.1 75.3613C378.307 75.3613 378.619 75.3828 379.037 75.4258C379.1 75.4336 379.193 75.4434 379.318 75.4551H380.414V80.0781C380.414 80.8672 380.496 81.5078 380.66 82H379.523C379.438 81.6406 379.369 81.1504 379.318 80.5293ZM379.318 79.2344V76.4277C378.932 76.3262 378.572 76.2754 378.24 76.2754C377.568 76.2754 377.008 76.5352 376.559 77.0547C376.113 77.5742 375.891 78.2812 375.891 79.1758C375.891 79.8242 376.012 80.3145 376.254 80.6465C376.5 80.9746 376.779 81.1387 377.092 81.1387C377.432 81.1387 377.807 80.9668 378.217 80.623C378.627 80.2793 378.994 79.8164 379.318 79.2344ZM387.697 81.7363C387.186 81.9512 386.814 82.0781 386.584 82.1172C386.354 82.1602 386.131 82.1816 385.916 82.1816C385.459 82.1816 385.041 82.0938 384.662 81.918C384.283 81.7422 383.996 81.4824 383.801 81.1387C383.609 80.7949 383.514 80.2637 383.514 79.5449V76.9082H381.879V76H383.514V73.3633H384.604V76H387.516V76.9082H384.604V79.5273C384.604 80.0547 384.666 80.4277 384.791 80.6465C384.916 80.8613 385.082 81.0195 385.289 81.1211C385.5 81.2227 385.748 81.2734 386.033 81.2734C386.561 81.2734 387.115 81.1074 387.697 80.7754V81.7363ZM394.875 81.5664C394.004 81.9805 393.18 82.1875 392.402 82.1875C391.812 82.1875 391.285 82.041 390.82 81.748C390.355 81.4551 389.982 81.0371 389.701 80.4941C389.424 79.9473 389.285 79.3633 389.285 78.7422C389.285 78.1445 389.418 77.5703 389.684 77.0195C389.949 76.4688 390.32 76.041 390.797 75.7363C391.273 75.4277 391.805 75.2734 392.391 75.2734C393.168 75.2734 393.791 75.5508 394.26 76.1055C394.732 76.6602 394.969 77.5156 394.969 78.6719V78.9062H390.457C390.457 79.3594 390.551 79.7734 390.738 80.1484C390.93 80.5234 391.18 80.8047 391.488 80.9922C391.797 81.1797 392.148 81.2734 392.543 81.2734C393.246 81.2734 394.023 81.0391 394.875 80.5703V81.5664ZM390.521 78.0918H393.785V77.9336C393.785 77.3984 393.654 76.9727 393.393 76.6562C393.131 76.3398 392.781 76.1816 392.344 76.1816C391.902 76.1816 391.52 76.3438 391.195 76.668C390.875 76.9883 390.65 77.4629 390.521 78.0918ZM396.715 81.6543V80.5C397.152 80.7852 397.615 80.9863 398.104 81.1035C398.592 81.2168 399.006 81.2734 399.346 81.2734C399.896 81.2734 400.293 81.1855 400.535 81.0098C400.777 80.8301 400.898 80.6074 400.898 80.3418C400.898 80.166 400.842 80.0156 400.729 79.8906C400.615 79.7656 400.334 79.6113 399.885 79.4277L399.51 79.2754L398.754 78.9766C397.941 78.6602 397.43 78.3672 397.219 78.0977C397.004 77.832 396.896 77.5078 396.896 77.125C396.896 76.5859 397.104 76.1426 397.518 75.7949C397.936 75.4473 398.611 75.2734 399.545 75.2734C400.244 75.2734 400.906 75.375 401.531 75.5781V76.5684C400.812 76.3105 400.137 76.1816 399.504 76.1816C399.043 76.1816 398.682 76.2637 398.42 76.4277C398.162 76.5879 398.033 76.7891 398.033 77.0312C398.033 77.2656 398.146 77.4531 398.373 77.5938C398.596 77.7344 398.959 77.8965 399.463 78.0801L400.201 78.3496C400.877 78.5957 401.352 78.8633 401.625 79.1523C401.898 79.4414 402.035 79.8027 402.035 80.2363C402.035 80.8027 401.816 81.2695 401.379 81.6367C400.945 82 400.25 82.1816 399.293 82.1816C398.457 82.1816 397.598 82.0059 396.715 81.6543ZM411.328 82L410.262 75.4551H411.275L411.896 79.4395L412.061 80.3652L412.219 79.4395L413.262 75.4551H414.24L415.418 79.4395L415.623 80.3652L415.758 79.4395L416.385 75.4551H417.223L416.162 82H415.143L413.889 77.7871L413.689 76.8613H413.66L413.479 77.7812L412.389 82H411.328ZM420.094 82V76.3633H418.277V75.4551H421.184V81.0918H423.006V82H420.094ZM419.912 73.0938C419.912 72.8477 419.996 72.6641 420.164 72.543C420.332 72.4219 420.49 72.3613 420.639 72.3613C420.791 72.3613 420.951 72.4219 421.119 72.543C421.287 72.6641 421.371 72.8477 421.371 73.0938C421.371 73.3359 421.287 73.5176 421.119 73.6387C420.951 73.7598 420.791 73.8203 420.639 73.8203C420.49 73.8203 420.332 73.7598 420.164 73.6387C419.996 73.5176 419.912 73.3359 419.912 73.0938ZM430.939 81.7363C430.428 81.9512 430.057 82.0781 429.826 82.1172C429.596 82.1602 429.373 82.1816 429.158 82.1816C428.701 82.1816 428.283 82.0938 427.904 81.918C427.525 81.7422 427.238 81.4824 427.043 81.1387C426.852 80.7949 426.756 80.2637 426.756 79.5449V76.9082H425.121V76H426.756V73.3633H427.846V76H430.758V76.9082H427.846V79.5273C427.846 80.0547 427.908 80.4277 428.033 80.6465C428.158 80.8613 428.324 81.0195 428.531 81.1211C428.742 81.2227 428.99 81.2734 429.275 81.2734C429.803 81.2734 430.357 81.1074 430.939 80.7754V81.7363ZM432.674 82V72.543H433.764V76.8848C434.076 76.3809 434.453 75.9863 434.895 75.7012C435.336 75.416 435.777 75.2734 436.219 75.2734C436.59 75.2734 436.928 75.3691 437.232 75.5605C437.541 75.748 437.756 75.9766 437.877 76.2461C437.975 76.4531 438.041 76.6738 438.076 76.9082C438.111 77.1387 438.129 77.6172 438.129 78.3438V82H437.039V78.209C437.039 77.5801 437.008 77.166 436.945 76.9668C436.887 76.7637 436.775 76.5977 436.611 76.4688C436.451 76.3398 436.275 76.2754 436.084 76.2754C435.701 76.2754 435.289 76.457 434.848 76.8203C434.41 77.1836 434.049 77.6387 433.764 78.1855V82H432.674ZM449.496 81.7363L446.473 75.4551H447.674L450.082 80.3652L452.098 75.4551H453.193L450.656 81.5371C450.121 82.8223 449.611 83.6758 449.127 84.0977C448.646 84.5195 448.023 84.7305 447.258 84.7305C446.926 84.7305 446.629 84.7012 446.367 84.6426V83.6816C446.668 83.7754 446.955 83.8223 447.229 83.8223C447.58 83.8223 447.893 83.7539 448.166 83.6172C448.439 83.4805 448.689 83.2383 448.916 82.8906C449.143 82.543 449.303 82.2422 449.396 81.9883L449.496 81.7363Z" fill="black"/>
<path d="M61.875 111.453H60.8789L58.875 109.543H60.1406L61.875 111.453ZM69.082 111.453H68.0859L66.082 109.543H67.3477L69.082 111.453ZM76.2891 111.453H75.293L73.2891 109.543H74.5547L76.2891 111.453ZM85.002 118.736C84.4902 118.951 84.1191 119.078 83.8887 119.117C83.6582 119.16 83.4355 119.182 83.2207 119.182C82.7637 119.182 82.3457 119.094 81.9668 118.918C81.5879 118.742 81.3008 118.482 81.1055 118.139C80.9141 117.795 80.8184 117.264 80.8184 116.545V113.908H79.1836V113H80.8184V110.363H81.9082V113H84.8203V113.908H81.9082V116.527C81.9082 117.055 81.9707 117.428 82.0957 117.646C82.2207 117.861 82.3867 118.02 82.5938 118.121C82.8047 118.223 83.0527 118.273 83.3379 118.273C83.8652 118.273 84.4199 118.107 85.002 117.775V118.736ZM86.8125 118.654V117.5C87.25 117.785 87.7129 117.986 88.2012 118.104C88.6895 118.217 89.1035 118.273 89.4434 118.273C89.9941 118.273 90.3906 118.186 90.6328 118.01C90.875 117.83 90.9961 117.607 90.9961 117.342C90.9961 117.166 90.9395 117.016 90.8262 116.891C90.7129 116.766 90.4316 116.611 89.9824 116.428L89.6074 116.275L88.8516 115.977C88.0391 115.66 87.5273 115.367 87.3164 115.098C87.1016 114.832 86.9941 114.508 86.9941 114.125C86.9941 113.586 87.2012 113.143 87.6152 112.795C88.0332 112.447 88.709 112.273 89.6426 112.273C90.3418 112.273 91.0039 112.375 91.6289 112.578V113.568C90.9102 113.311 90.2344 113.182 89.6016 113.182C89.1406 113.182 88.7793 113.264 88.5176 113.428C88.2598 113.588 88.1309 113.789 88.1309 114.031C88.1309 114.266 88.2441 114.453 88.4707 114.594C88.6934 114.734 89.0566 114.896 89.5605 115.08L90.2988 115.35C90.9746 115.596 91.4492 115.863 91.7227 116.152C91.9961 116.441 92.1328 116.803 92.1328 117.236C92.1328 117.803 91.9141 118.27 91.4766 118.637C91.043 119 90.3477 119.182 89.3906 119.182C88.5547 119.182 87.6953 119.006 86.8125 118.654ZM106.623 118.736C106.111 118.951 105.74 119.078 105.51 119.117C105.279 119.16 105.057 119.182 104.842 119.182C104.385 119.182 103.967 119.094 103.588 118.918C103.209 118.742 102.922 118.482 102.727 118.139C102.535 117.795 102.439 117.264 102.439 116.545V113.908H100.805V113H102.439V110.363H103.529V113H106.441V113.908H103.529V116.527C103.529 117.055 103.592 117.428 103.717 117.646C103.842 117.861 104.008 118.02 104.215 118.121C104.426 118.223 104.674 118.273 104.959 118.273C105.486 118.273 106.041 118.107 106.623 117.775V118.736ZM108.633 119L107.566 112.455H108.58L109.201 116.439L109.365 117.365L109.523 116.439L110.566 112.455H111.545L112.723 116.439L112.928 117.365L113.062 116.439L113.689 112.455H114.527L113.467 119H112.447L111.193 114.787L110.994 113.861H110.965L110.783 114.781L109.693 119H108.633ZM118.26 119.182C117.322 119.182 116.572 118.855 116.01 118.203C115.447 117.547 115.166 116.721 115.166 115.725C115.166 114.729 115.447 113.904 116.01 113.252C116.572 112.6 117.322 112.273 118.26 112.273C119.193 112.273 119.941 112.6 120.504 113.252C121.066 113.904 121.348 114.729 121.348 115.725C121.348 116.721 121.066 117.547 120.504 118.203C119.941 118.855 119.193 119.182 118.26 119.182ZM118.26 118.273C118.842 118.273 119.305 118.047 119.648 117.594C119.992 117.141 120.164 116.518 120.164 115.725C120.164 114.936 119.992 114.314 119.648 113.861C119.305 113.408 118.842 113.182 118.26 113.182C117.674 113.182 117.209 113.408 116.865 113.861C116.521 114.314 116.35 114.936 116.35 115.725C116.35 116.518 116.521 117.141 116.865 117.594C117.209 118.047 117.674 118.273 118.26 118.273ZM122.848 118.654V117.5C123.285 117.785 123.748 117.986 124.236 118.104C124.725 118.217 125.139 118.273 125.479 118.273C126.029 118.273 126.426 118.186 126.668 118.01C126.91 117.83 127.031 117.607 127.031 117.342C127.031 117.166 126.975 117.016 126.861 116.891C126.748 116.766 126.467 116.611 126.018 116.428L125.643 116.275L124.887 115.977C124.074 115.66 123.562 115.367 123.352 115.098C123.137 114.832 123.029 114.508 123.029 114.125C123.029 113.586 123.236 113.143 123.65 112.795C124.068 112.447 124.744 112.273 125.678 112.273C126.377 112.273 127.039 112.375 127.664 112.578V113.568C126.945 113.311 126.27 113.182 125.637 113.182C125.176 113.182 124.814 113.264 124.553 113.428C124.295 113.588 124.166 113.789 124.166 114.031C124.166 114.266 124.279 114.453 124.506 114.594C124.729 114.734 125.092 114.896 125.596 115.08L126.334 115.35C127.01 115.596 127.484 115.863 127.758 116.152C128.031 116.441 128.168 116.803 128.168 117.236C128.168 117.803 127.949 118.27 127.512 118.637C127.078 119 126.383 119.182 125.426 119.182C124.59 119.182 123.73 119.006 122.848 118.654ZM131.736 119V110.457H129.779V109.543H132.826V118.092H134.871V119H131.736ZM141.486 117.529C141.154 118.076 140.754 118.488 140.285 118.766C139.82 119.043 139.393 119.182 139.002 119.182C138.455 119.182 137.963 118.945 137.525 118.473C137.092 118 136.875 117.283 136.875 116.322C136.875 115.564 137.02 114.889 137.309 114.295C137.598 113.697 137.984 113.227 138.469 112.883C138.953 112.535 139.553 112.361 140.268 112.361C140.475 112.361 140.787 112.383 141.205 112.426C141.268 112.434 141.361 112.443 141.486 112.455H142.582V117.078C142.582 117.867 142.664 118.508 142.828 119H141.691C141.605 118.641 141.537 118.15 141.486 117.529ZM141.486 116.234V113.428C141.1 113.326 140.74 113.275 140.408 113.275C139.736 113.275 139.176 113.535 138.727 114.055C138.281 114.574 138.059 115.281 138.059 116.176C138.059 116.824 138.18 117.314 138.422 117.646C138.668 117.975 138.947 118.139 139.26 118.139C139.6 118.139 139.975 117.967 140.385 117.623C140.795 117.279 141.162 116.816 141.486 116.234ZM144.469 118.654V117.5C144.906 117.785 145.369 117.986 145.857 118.104C146.346 118.217 146.76 118.273 147.1 118.273C147.65 118.273 148.047 118.186 148.289 118.01C148.531 117.83 148.652 117.607 148.652 117.342C148.652 117.166 148.596 117.016 148.482 116.891C148.369 116.766 148.088 116.611 147.639 116.428L147.264 116.275L146.508 115.977C145.695 115.66 145.184 115.367 144.973 115.098C144.758 114.832 144.65 114.508 144.65 114.125C144.65 113.586 144.857 113.143 145.271 112.795C145.689 112.447 146.365 112.273 147.299 112.273C147.998 112.273 148.66 112.375 149.285 112.578V113.568C148.566 113.311 147.891 113.182 147.258 113.182C146.797 113.182 146.436 113.264 146.174 113.428C145.916 113.588 145.787 113.789 145.787 114.031C145.787 114.266 145.9 114.453 146.127 114.594C146.35 114.734 146.713 114.896 147.217 115.08L147.955 115.35C148.631 115.596 149.105 115.863 149.379 116.152C149.652 116.441 149.789 116.803 149.789 117.236C149.789 117.803 149.57 118.27 149.133 118.637C148.699 119 148.004 119.182 147.047 119.182C146.211 119.182 145.352 119.006 144.469 118.654ZM151.6 119V109.543H152.689V113.885C153.002 113.381 153.379 112.986 153.82 112.701C154.262 112.416 154.703 112.273 155.145 112.273C155.516 112.273 155.854 112.369 156.158 112.561C156.467 112.748 156.682 112.977 156.803 113.246C156.9 113.453 156.967 113.674 157.002 113.908C157.037 114.139 157.055 114.617 157.055 115.344V119H155.965V115.209C155.965 114.58 155.934 114.166 155.871 113.967C155.812 113.764 155.701 113.598 155.537 113.469C155.377 113.34 155.201 113.275 155.01 113.275C154.627 113.275 154.215 113.457 153.773 113.82C153.336 114.184 152.975 114.639 152.689 115.186V119H151.6ZM58.2656 135.275H57.1934L62.9766 125.637H64.0137L58.2656 135.275ZM65.4727 135.275H64.4004L70.1836 125.637H71.2207L65.4727 135.275ZM84.0176 133.828V134.748C83.6895 134.963 83.3984 135.104 83.1445 135.17C82.8906 135.24 82.6172 135.275 82.3242 135.275C81.5117 135.275 80.8457 135.078 80.3262 134.684C79.8105 134.285 79.3984 133.732 79.0898 133.025C78.7852 132.314 78.6328 131.447 78.6328 130.424C78.6328 129.002 78.959 127.85 79.6113 126.967C80.2637 126.08 81.1445 125.637 82.2539 125.637C83.3516 125.637 84.2188 126.027 84.8555 126.809C85.4961 127.59 85.8164 128.617 85.8164 129.891C85.8164 130.453 85.7344 130.916 85.5703 131.279C85.4062 131.639 85.1895 131.926 84.9199 132.141C84.6504 132.352 84.3242 132.457 83.9414 132.457C83.6445 132.457 83.4023 132.393 83.2148 132.264C83.0273 132.131 82.8867 131.828 82.793 131.355C82.6836 131.609 82.5156 131.857 82.2891 132.1C82.0625 132.338 81.7559 132.457 81.3691 132.457C80.9668 132.457 80.6328 132.275 80.3672 131.912C80.1055 131.545 79.9746 131.096 79.9746 130.564C79.9746 129.912 80.1621 129.307 80.5371 128.748C80.916 128.189 81.5977 127.91 82.582 127.91H83.7012V130.477C83.7012 130.816 83.7129 131.059 83.7363 131.203C83.7637 131.344 83.8164 131.451 83.8945 131.525C83.9766 131.6 84.0645 131.637 84.1582 131.637C84.3105 131.637 84.4629 131.564 84.6152 131.42C84.7715 131.271 84.8887 131.064 84.9668 130.799C85.0488 130.529 85.0898 130.238 85.0898 129.926C85.0898 129.273 84.9707 128.641 84.7324 128.027C84.4941 127.41 84.1406 126.971 83.6719 126.709C83.2031 126.447 82.7129 126.316 82.2012 126.316C81.6582 126.316 81.1797 126.48 80.7656 126.809C80.3555 127.133 80.0176 127.621 79.752 128.273C79.4902 128.926 79.3594 129.646 79.3594 130.436C79.3594 131.229 79.4902 131.963 79.752 132.639C80.0137 133.314 80.3672 133.809 80.8125 134.121C81.2578 134.434 81.7539 134.59 82.3008 134.59C82.9219 134.59 83.4941 134.336 84.0176 133.828ZM82.793 130.26V128.684H82.582C82.1211 128.684 81.7891 128.756 81.5859 128.9C81.3828 129.045 81.2227 129.271 81.1055 129.58C80.9883 129.889 80.9297 130.229 80.9297 130.6C80.9297 130.9 80.9766 131.133 81.0703 131.297C81.1641 131.461 81.293 131.543 81.457 131.543C81.6875 131.543 81.9219 131.41 82.1602 131.145C82.4023 130.875 82.6133 130.58 82.793 130.26ZM86.8125 134.654V133.5C87.25 133.785 87.7129 133.986 88.2012 134.104C88.6895 134.217 89.1035 134.273 89.4434 134.273C89.9941 134.273 90.3906 134.186 90.6328 134.01C90.875 133.83 90.9961 133.607 90.9961 133.342C90.9961 133.166 90.9395 133.016 90.8262 132.891C90.7129 132.766 90.4316 132.611 89.9824 132.428L89.6074 132.275L88.8516 131.977C88.0391 131.66 87.5273 131.367 87.3164 131.098C87.1016 130.832 86.9941 130.508 86.9941 130.125C86.9941 129.586 87.2012 129.143 87.6152 128.795C88.0332 128.447 88.709 128.273 89.6426 128.273C90.3418 128.273 91.0039 128.375 91.6289 128.578V129.568C90.9102 129.311 90.2344 129.182 89.6016 129.182C89.1406 129.182 88.7793 129.264 88.5176 129.428C88.2598 129.588 88.1309 129.789 88.1309 130.031C88.1309 130.266 88.2441 130.453 88.4707 130.594C88.6934 130.734 89.0566 130.896 89.5605 131.08L90.2988 131.35C90.9746 131.596 91.4492 131.863 91.7227 132.152C91.9961 132.441 92.1328 132.803 92.1328 133.236C92.1328 133.803 91.9141 134.27 91.4766 134.637C91.043 135 90.3477 135.182 89.3906 135.182C88.5547 135.182 87.6953 135.006 86.8125 134.654ZM93.9434 135V125.543H95.0332V129.885C95.3457 129.381 95.7227 128.986 96.1641 128.701C96.6055 128.416 97.0469 128.273 97.4883 128.273C97.8594 128.273 98.1973 128.369 98.502 128.561C98.8105 128.748 99.0254 128.977 99.1465 129.246C99.2441 129.453 99.3105 129.674 99.3457 129.908C99.3809 130.139 99.3984 130.617 99.3984 131.344V135H98.3086V131.209C98.3086 130.58 98.2773 130.166 98.2148 129.967C98.1562 129.764 98.0449 129.598 97.8809 129.469C97.7207 129.34 97.5449 129.275 97.3535 129.275C96.9707 129.275 96.5586 129.457 96.1172 129.82C95.6797 130.184 95.3184 130.639 95.0332 131.186V135H93.9434ZM103.846 135.182C102.908 135.182 102.158 134.855 101.596 134.203C101.033 133.547 100.752 132.721 100.752 131.725C100.752 130.729 101.033 129.904 101.596 129.252C102.158 128.6 102.908 128.273 103.846 128.273C104.779 128.273 105.527 128.6 106.09 129.252C106.652 129.904 106.934 130.729 106.934 131.725C106.934 132.721 106.652 133.547 106.09 134.203C105.527 134.855 104.779 135.182 103.846 135.182ZM103.846 134.273C104.428 134.273 104.891 134.047 105.234 133.594C105.578 133.141 105.75 132.518 105.75 131.725C105.75 130.936 105.578 130.314 105.234 129.861C104.891 129.408 104.428 129.182 103.846 129.182C103.26 129.182 102.795 129.408 102.451 129.861C102.107 130.314 101.936 130.936 101.936 131.725C101.936 132.518 102.107 133.141 102.451 133.594C102.795 134.047 103.26 134.273 103.846 134.273ZM108.633 135L107.566 128.455H108.58L109.201 132.439L109.365 133.365L109.523 132.439L110.566 128.455H111.545L112.723 132.439L112.928 133.365L113.062 132.439L113.689 128.455H114.527L113.467 135H112.447L111.193 130.787L110.994 129.861H110.965L110.783 130.781L109.693 135H108.633ZM120.756 133.998V135H115.846V125.906H120.662V126.82H117.029V129.908H120.299V130.816H117.029V133.998H120.756ZM122.279 135V128.455H123.234V129.955C123.535 129.318 123.814 128.879 124.072 128.637C124.334 128.395 124.598 128.273 124.863 128.273C125.18 128.273 125.434 128.398 125.625 128.648C125.82 128.895 125.918 129.246 125.918 129.703V130.055C126.047 129.656 126.201 129.334 126.381 129.088C126.564 128.838 126.754 128.641 126.949 128.496C127.145 128.348 127.369 128.273 127.623 128.273C127.904 128.273 128.145 128.393 128.344 128.631C128.543 128.869 128.643 129.344 128.643 130.055V135H127.688V130.529C127.688 130.162 127.676 129.912 127.652 129.779C127.629 129.643 127.582 129.539 127.512 129.469C127.441 129.398 127.365 129.363 127.283 129.363C127.08 129.363 126.861 129.52 126.627 129.832C126.396 130.141 126.16 130.654 125.918 131.373V135H125.004V130.535C125.004 129.957 124.947 129.617 124.834 129.516C124.721 129.414 124.619 129.363 124.529 129.363C124.33 129.363 124.115 129.537 123.885 129.885C123.658 130.232 123.441 130.678 123.234 131.221V135H122.279ZM131.812 135V129.363H129.996V128.455H132.902V134.092H134.725V135H131.812ZM131.631 126.094C131.631 125.848 131.715 125.664 131.883 125.543C132.051 125.422 132.209 125.361 132.357 125.361C132.51 125.361 132.67 125.422 132.838 125.543C133.006 125.664 133.09 125.848 133.09 126.094C133.09 126.336 133.006 126.518 132.838 126.639C132.67 126.76 132.51 126.82 132.357 126.82C132.209 126.82 132.051 126.76 131.883 126.639C131.715 126.518 131.631 126.336 131.631 126.094ZM142.658 134.736C142.146 134.951 141.775 135.078 141.545 135.117C141.314 135.16 141.092 135.182 140.877 135.182C140.42 135.182 140.002 135.094 139.623 134.918C139.244 134.742 138.957 134.482 138.762 134.139C138.57 133.795 138.475 133.264 138.475 132.545V129.908H136.84V129H138.475V126.363H139.564V129H142.477V129.908H139.564V132.527C139.564 133.055 139.627 133.428 139.752 133.646C139.877 133.861 140.043 134.02 140.25 134.121C140.461 134.223 140.709 134.273 140.994 134.273C141.521 134.273 142.076 134.107 142.658 133.775V134.736ZM58.2656 151.275H57.1934L62.9766 141.637H64.0137L58.2656 151.275ZM65.4727 151.275H64.4004L70.1836 141.637H71.2207L65.4727 151.275ZM84.0176 149.828V150.748C83.6895 150.963 83.3984 151.104 83.1445 151.17C82.8906 151.24 82.6172 151.275 82.3242 151.275C81.5117 151.275 80.8457 151.078 80.3262 150.684C79.8105 150.285 79.3984 149.732 79.0898 149.025C78.7852 148.314 78.6328 147.447 78.6328 146.424C78.6328 145.002 78.959 143.85 79.6113 142.967C80.2637 142.08 81.1445 141.637 82.2539 141.637C83.3516 141.637 84.2188 142.027 84.8555 142.809C85.4961 143.59 85.8164 144.617 85.8164 145.891C85.8164 146.453 85.7344 146.916 85.5703 147.279C85.4062 147.639 85.1895 147.926 84.9199 148.141C84.6504 148.352 84.3242 148.457 83.9414 148.457C83.6445 148.457 83.4023 148.393 83.2148 148.264C83.0273 148.131 82.8867 147.828 82.793 147.355C82.6836 147.609 82.5156 147.857 82.2891 148.1C82.0625 148.338 81.7559 148.457 81.3691 148.457C80.9668 148.457 80.6328 148.275 80.3672 147.912C80.1055 147.545 79.9746 147.096 79.9746 146.564C79.9746 145.912 80.1621 145.307 80.5371 144.748C80.916 144.189 81.5977 143.91 82.582 143.91H83.7012V146.477C83.7012 146.816 83.7129 147.059 83.7363 147.203C83.7637 147.344 83.8164 147.451 83.8945 147.525C83.9766 147.6 84.0645 147.637 84.1582 147.637C84.3105 147.637 84.4629 147.564 84.6152 147.42C84.7715 147.271 84.8887 147.064 84.9668 146.799C85.0488 146.529 85.0898 146.238 85.0898 145.926C85.0898 145.273 84.9707 144.641 84.7324 144.027C84.4941 143.41 84.1406 142.971 83.6719 142.709C83.2031 142.447 82.7129 142.316 82.2012 142.316C81.6582 142.316 81.1797 142.48 80.7656 142.809C80.3555 143.133 80.0176 143.621 79.752 144.273C79.4902 144.926 79.3594 145.646 79.3594 146.436C79.3594 147.229 79.4902 147.963 79.752 148.639C80.0137 149.314 80.3672 149.809 80.8125 150.121C81.2578 150.434 81.7539 150.59 82.3008 150.59C82.9219 150.59 83.4941 150.336 84.0176 149.828ZM82.793 146.26V144.684H82.582C82.1211 144.684 81.7891 144.756 81.5859 144.9C81.3828 145.045 81.2227 145.271 81.1055 145.58C80.9883 145.889 80.9297 146.229 80.9297 146.6C80.9297 146.9 80.9766 147.133 81.0703 147.297C81.1641 147.461 81.293 147.543 81.457 147.543C81.6875 147.543 81.9219 147.41 82.1602 147.145C82.4023 146.875 82.6133 146.58 82.793 146.26ZM86.2441 151V144.455H87.1992V145.955C87.5 145.318 87.7793 144.879 88.0371 144.637C88.2988 144.395 88.5625 144.273 88.8281 144.273C89.1445 144.273 89.3984 144.398 89.5898 144.648C89.7852 144.895 89.8828 145.246 89.8828 145.703V146.055C90.0117 145.656 90.166 145.334 90.3457 145.088C90.5293 144.838 90.7188 144.641 90.9141 144.496C91.1094 144.348 91.334 144.273 91.5879 144.273C91.8691 144.273 92.1094 144.393 92.3086 144.631C92.5078 144.869 92.6074 145.344 92.6074 146.055V151H91.6523V146.529C91.6523 146.162 91.6406 145.912 91.6172 145.779C91.5938 145.643 91.5469 145.539 91.4766 145.469C91.4062 145.398 91.3301 145.363 91.248 145.363C91.0449 145.363 90.8262 145.52 90.5918 145.832C90.3613 146.141 90.125 146.654 89.8828 147.373V151H88.9688V146.535C88.9688 145.957 88.9121 145.617 88.7988 145.516C88.6855 145.414 88.584 145.363 88.4941 145.363C88.2949 145.363 88.0801 145.537 87.8496 145.885C87.623 146.232 87.4062 146.678 87.1992 147.221V151H86.2441ZM96.6387 151.182C95.7012 151.182 94.9512 150.855 94.3887 150.203C93.8262 149.547 93.5449 148.721 93.5449 147.725C93.5449 146.729 93.8262 145.904 94.3887 145.252C94.9512 144.6 95.7012 144.273 96.6387 144.273C97.5723 144.273 98.3203 144.6 98.8828 145.252C99.4453 145.904 99.7266 146.729 99.7266 147.725C99.7266 148.721 99.4453 149.547 98.8828 150.203C98.3203 150.855 97.5723 151.182 96.6387 151.182ZM96.6387 150.273C97.2207 150.273 97.6836 150.047 98.0273 149.594C98.3711 149.141 98.543 148.518 98.543 147.725C98.543 146.936 98.3711 146.314 98.0273 145.861C97.6836 145.408 97.2207 145.182 96.6387 145.182C96.0527 145.182 95.5879 145.408 95.2441 145.861C94.9004 146.314 94.7285 146.936 94.7285 147.725C94.7285 148.518 94.9004 149.141 95.2441 149.594C95.5879 150.047 96.0527 150.273 96.6387 150.273Z" fill="black"/>
<path d="M58.0156 103L57.1367 95.4219H58.0352L58.5527 100.036L58.6211 100.803H58.6455L58.7432 100.036L59.5391 95.4219H60.4375L61.3457 100.222L61.4385 100.954H61.4629L61.5215 100.217L62.0928 95.4219H62.8643L61.9463 103H61.0137L60.0371 97.8633L59.9346 97.0918H59.9102L59.8174 97.8633L58.9385 103H58.0156ZM66.0088 103.151C65.2275 103.151 64.6025 102.88 64.1338 102.336C63.665 101.789 63.4307 101.101 63.4307 100.271C63.4307 99.4404 63.665 98.7536 64.1338 98.21C64.6025 97.6663 65.2275 97.3945 66.0088 97.3945C66.7868 97.3945 67.4102 97.6663 67.8789 98.21C68.3477 98.7536 68.582 99.4404 68.582 100.271C68.582 101.101 68.3477 101.789 67.8789 102.336C67.4102 102.88 66.7868 103.151 66.0088 103.151ZM66.0088 102.395C66.4938 102.395 66.8796 102.206 67.166 101.828C67.4525 101.451 67.5957 100.931 67.5957 100.271C67.5957 99.613 67.4525 99.0954 67.166 98.7178C66.8796 98.3402 66.4938 98.1514 66.0088 98.1514C65.5205 98.1514 65.1331 98.3402 64.8467 98.7178C64.5602 99.0954 64.417 99.613 64.417 100.271C64.417 100.931 64.5602 101.451 64.8467 101.828C65.1331 102.206 65.5205 102.395 66.0088 102.395ZM70.2324 103V97.5459H71.1406V98.7373C71.4238 98.2881 71.7477 97.9528 72.1123 97.7314C72.4801 97.5068 72.8887 97.3945 73.3379 97.3945C73.6667 97.3945 73.9954 97.445 74.3242 97.5459V99.5137H73.4502V98.2686C73.2972 98.2425 73.1768 98.2295 73.0889 98.2295C72.7503 98.2295 72.4183 98.363 72.0928 98.6299C71.7673 98.8968 71.4499 99.2972 71.1406 99.8311V103H70.2324ZM76.0186 103V95.1191H76.9268V100.07L79.5488 97.5459H80.7598L78.1426 100.07L80.8281 103H79.5781L76.9268 100.07V103H76.0186ZM82.6201 98.7715C82.9001 98.3158 83.2337 97.9723 83.6211 97.7412C84.0085 97.5101 84.3649 97.3945 84.6904 97.3945C85.1462 97.3945 85.5563 97.5915 85.9209 97.9854C86.2855 98.3792 86.4678 98.9766 86.4678 99.7773C86.4678 100.409 86.3457 100.974 86.1016 101.472C85.8607 101.966 85.5384 102.359 85.1348 102.648C84.7311 102.935 84.2314 103.078 83.6357 103.078C83.4665 103.078 83.2061 103.06 82.8545 103.024C82.8024 103.018 82.7243 103.01 82.6201 103H81.7119V95.1191H82.6201V98.7715ZM82.6201 99.8506V102.189C82.9489 102.274 83.2516 102.316 83.5283 102.316C84.0785 102.316 84.5407 102.102 84.915 101.672C85.2926 101.239 85.4814 100.648 85.4814 99.8994C85.4814 99.3558 85.3789 98.9473 85.1738 98.6738C84.9688 98.4004 84.736 98.2637 84.4756 98.2637C84.1924 98.2637 83.8799 98.4069 83.5381 98.6934C83.1995 98.9798 82.8936 99.3656 82.6201 99.8506ZM92.3223 102.639C91.5964 102.984 90.9095 103.156 90.2617 103.156C89.7702 103.156 89.3307 103.034 88.9434 102.79C88.556 102.546 88.2451 102.198 88.0107 101.745C87.7796 101.289 87.6641 100.803 87.6641 100.285C87.6641 99.7871 87.7747 99.3086 87.9961 98.8496C88.2174 98.3906 88.5267 98.0342 88.9238 97.7803C89.321 97.5231 89.7637 97.3945 90.252 97.3945C90.8997 97.3945 91.4189 97.6257 91.8096 98.0879C92.2035 98.5501 92.4004 99.263 92.4004 100.227V100.422H88.6406C88.6406 100.799 88.7188 101.145 88.875 101.457C89.0345 101.77 89.2428 102.004 89.5 102.16C89.7572 102.316 90.0501 102.395 90.3789 102.395C90.9648 102.395 91.6126 102.199 92.3223 101.809V102.639ZM88.6943 99.7432H91.4141V99.6113C91.4141 99.1654 91.305 98.8105 91.0869 98.5469C90.8688 98.2832 90.5775 98.1514 90.2129 98.1514C89.8451 98.1514 89.526 98.2865 89.2559 98.5566C88.9889 98.8236 88.8018 99.2191 88.6943 99.7432ZM93.792 103V97.5459H94.7002V98.7373C94.9606 98.3174 95.2747 97.9886 95.6426 97.751C96.0104 97.5133 96.3783 97.3945 96.7461 97.3945C97.0684 97.3945 97.3613 97.4808 97.625 97.6533C97.8887 97.8226 98.0726 98.0456 98.1768 98.3223C98.2842 98.599 98.3379 99.1426 98.3379 99.9531V103H97.4297V99.8408C97.4297 99.3167 97.4036 98.9717 97.3516 98.8057C97.3027 98.6364 97.21 98.498 97.0732 98.3906C96.9398 98.2832 96.7933 98.2295 96.6338 98.2295C96.3148 98.2295 95.9714 98.3809 95.6035 98.6836C95.2389 98.9863 94.9378 99.3656 94.7002 99.8213V103H93.792ZM104.388 102.844C103.779 103.049 103.2 103.151 102.649 103.151C102.103 103.151 101.616 103.026 101.189 102.775C100.766 102.521 100.436 102.18 100.198 101.75C99.9606 101.317 99.8418 100.826 99.8418 100.275C99.8418 99.4486 100.11 98.7617 100.647 98.2148C101.188 97.668 101.839 97.3945 102.601 97.3945C103.164 97.3945 103.759 97.5003 104.388 97.7119V98.5859C103.753 98.2962 103.185 98.1514 102.684 98.1514C102.352 98.1514 102.039 98.2344 101.746 98.4004C101.453 98.5632 101.227 98.8187 101.067 99.167C100.908 99.5153 100.828 99.8734 100.828 100.241C100.828 100.733 100.981 101.201 101.287 101.647C101.596 102.093 102.08 102.316 102.737 102.316C102.936 102.316 103.131 102.303 103.323 102.277C103.515 102.248 103.87 102.146 104.388 101.97V102.844ZM105.804 103V95.1191H106.712V98.7373C106.972 98.3174 107.286 97.9886 107.654 97.751C108.022 97.5133 108.39 97.3945 108.758 97.3945C109.067 97.3945 109.349 97.4743 109.603 97.6338C109.86 97.79 110.039 97.9805 110.14 98.2051C110.221 98.3776 110.276 98.5615 110.306 98.7568C110.335 98.9489 110.35 99.3477 110.35 99.9531V103H109.441V99.8408C109.441 99.3167 109.415 98.9717 109.363 98.8057C109.314 98.6364 109.222 98.498 109.085 98.3906C108.951 98.2832 108.805 98.2295 108.646 98.2295C108.326 98.2295 107.983 98.3809 107.615 98.6836C107.251 98.9863 106.95 99.3656 106.712 99.8213V103H105.804Z" fill="black" fill-opacity="0.28"/>
<line x1="50.5" y1="30" x2="50.5" y2="197" stroke="black"/>
<rect x="104" y="156" width="224" height="35" fill="white" fill-opacity="0.47"/>
<path d="M115.396 167.828V168.748C115.068 168.963 114.777 169.104 114.523 169.17C114.27 169.24 113.996 169.275 113.703 169.275C112.891 169.275 112.225 169.078 111.705 168.684C111.189 168.285 110.777 167.732 110.469 167.025C110.164 166.314 110.012 165.447 110.012 164.424C110.012 163.002 110.338 161.85 110.99 160.967C111.643 160.08 112.523 159.637 113.633 159.637C114.73 159.637 115.598 160.027 116.234 160.809C116.875 161.59 117.195 162.617 117.195 163.891C117.195 164.453 117.113 164.916 116.949 165.279C116.785 165.639 116.568 165.926 116.299 166.141C116.029 166.352 115.703 166.457 115.32 166.457C115.023 166.457 114.781 166.393 114.594 166.264C114.406 166.131 114.266 165.828 114.172 165.355C114.062 165.609 113.895 165.857 113.668 166.1C113.441 166.338 113.135 166.457 112.748 166.457C112.346 166.457 112.012 166.275 111.746 165.912C111.484 165.545 111.354 165.096 111.354 164.564C111.354 163.912 111.541 163.307 111.916 162.748C112.295 162.189 112.977 161.91 113.961 161.91H115.08V164.477C115.08 164.816 115.092 165.059 115.115 165.203C115.143 165.344 115.195 165.451 115.273 165.525C115.355 165.6 115.443 165.637 115.537 165.637C115.689 165.637 115.842 165.564 115.994 165.42C116.15 165.271 116.268 165.064 116.346 164.799C116.428 164.529 116.469 164.238 116.469 163.926C116.469 163.273 116.35 162.641 116.111 162.027C115.873 161.41 115.52 160.971 115.051 160.709C114.582 160.447 114.092 160.316 113.58 160.316C113.037 160.316 112.559 160.48 112.145 160.809C111.734 161.133 111.396 161.621 111.131 162.273C110.869 162.926 110.738 163.646 110.738 164.436C110.738 165.229 110.869 165.963 111.131 166.639C111.393 167.314 111.746 167.809 112.191 168.121C112.637 168.434 113.133 168.59 113.68 168.59C114.301 168.59 114.873 168.336 115.396 167.828ZM114.172 164.26V162.684H113.961C113.5 162.684 113.168 162.756 112.965 162.9C112.762 163.045 112.602 163.271 112.484 163.58C112.367 163.889 112.309 164.229 112.309 164.6C112.309 164.9 112.355 165.133 112.449 165.297C112.543 165.461 112.672 165.543 112.836 165.543C113.066 165.543 113.301 165.41 113.539 165.145C113.781 164.875 113.992 164.58 114.172 164.26ZM117.623 169V162.455H118.578V163.955C118.879 163.318 119.158 162.879 119.416 162.637C119.678 162.395 119.941 162.273 120.207 162.273C120.523 162.273 120.777 162.398 120.969 162.648C121.164 162.895 121.262 163.246 121.262 163.703V164.055C121.391 163.656 121.545 163.334 121.725 163.088C121.908 162.838 122.098 162.641 122.293 162.496C122.488 162.348 122.713 162.273 122.967 162.273C123.248 162.273 123.488 162.393 123.688 162.631C123.887 162.869 123.986 163.344 123.986 164.055V169H123.031V164.529C123.031 164.162 123.02 163.912 122.996 163.779C122.973 163.643 122.926 163.539 122.855 163.469C122.785 163.398 122.709 163.363 122.627 163.363C122.424 163.363 122.205 163.52 121.971 163.832C121.74 164.141 121.504 164.654 121.262 165.373V169H120.348V164.535C120.348 163.957 120.291 163.617 120.178 163.516C120.064 163.414 119.963 163.363 119.873 163.363C119.674 163.363 119.459 163.537 119.229 163.885C119.002 164.232 118.785 164.678 118.578 165.221V169H117.623ZM128.018 169.182C127.08 169.182 126.33 168.855 125.768 168.203C125.205 167.547 124.924 166.721 124.924 165.725C124.924 164.729 125.205 163.904 125.768 163.252C126.33 162.6 127.08 162.273 128.018 162.273C128.951 162.273 129.699 162.6 130.262 163.252C130.824 163.904 131.105 164.729 131.105 165.725C131.105 166.721 130.824 167.547 130.262 168.203C129.699 168.855 128.951 169.182 128.018 169.182ZM128.018 168.273C128.6 168.273 129.062 168.047 129.406 167.594C129.75 167.141 129.922 166.518 129.922 165.725C129.922 164.936 129.75 164.314 129.406 163.861C129.062 163.408 128.6 163.182 128.018 163.182C127.432 163.182 126.967 163.408 126.623 163.861C126.279 164.314 126.107 164.936 126.107 165.725C126.107 166.518 126.279 167.141 126.623 167.594C126.967 168.047 127.432 168.273 128.018 168.273ZM115.396 183.828V184.748C115.068 184.963 114.777 185.104 114.523 185.17C114.27 185.24 113.996 185.275 113.703 185.275C112.891 185.275 112.225 185.078 111.705 184.684C111.189 184.285 110.777 183.732 110.469 183.025C110.164 182.314 110.012 181.447 110.012 180.424C110.012 179.002 110.338 177.85 110.99 176.967C111.643 176.08 112.523 175.637 113.633 175.637C114.73 175.637 115.598 176.027 116.234 176.809C116.875 177.59 117.195 178.617 117.195 179.891C117.195 180.453 117.113 180.916 116.949 181.279C116.785 181.639 116.568 181.926 116.299 182.141C116.029 182.352 115.703 182.457 115.32 182.457C115.023 182.457 114.781 182.393 114.594 182.264C114.406 182.131 114.266 181.828 114.172 181.355C114.062 181.609 113.895 181.857 113.668 182.1C113.441 182.338 113.135 182.457 112.748 182.457C112.346 182.457 112.012 182.275 111.746 181.912C111.484 181.545 111.354 181.096 111.354 180.564C111.354 179.912 111.541 179.307 111.916 178.748C112.295 178.189 112.977 177.91 113.961 177.91H115.08V180.477C115.08 180.816 115.092 181.059 115.115 181.203C115.143 181.344 115.195 181.451 115.273 181.525C115.355 181.6 115.443 181.637 115.537 181.637C115.689 181.637 115.842 181.564 115.994 181.42C116.15 181.271 116.268 181.064 116.346 180.799C116.428 180.529 116.469 180.238 116.469 179.926C116.469 179.273 116.35 178.641 116.111 178.027C115.873 177.41 115.52 176.971 115.051 176.709C114.582 176.447 114.092 176.316 113.58 176.316C113.037 176.316 112.559 176.48 112.145 176.809C111.734 177.133 111.396 177.621 111.131 178.273C110.869 178.926 110.738 179.646 110.738 180.436C110.738 181.229 110.869 181.963 111.131 182.639C111.393 183.314 111.746 183.809 112.191 184.121C112.637 184.434 113.133 184.59 113.68 184.59C114.301 184.59 114.873 184.336 115.396 183.828ZM114.172 180.26V178.684H113.961C113.5 178.684 113.168 178.756 112.965 178.9C112.762 179.045 112.602 179.271 112.484 179.58C112.367 179.889 112.309 180.229 112.309 180.6C112.309 180.9 112.355 181.133 112.449 181.297C112.543 181.461 112.672 181.543 112.836 181.543C113.066 181.543 113.301 181.41 113.539 181.145C113.781 180.875 113.992 180.58 114.172 180.26ZM117.623 185V178.455H118.578V179.955C118.879 179.318 119.158 178.879 119.416 178.637C119.678 178.395 119.941 178.273 120.207 178.273C120.523 178.273 120.777 178.398 120.969 178.648C121.164 178.895 121.262 179.246 121.262 179.703V180.055C121.391 179.656 121.545 179.334 121.725 179.088C121.908 178.838 122.098 178.641 122.293 178.496C122.488 178.348 122.713 178.273 122.967 178.273C123.248 178.273 123.488 178.393 123.688 178.631C123.887 178.869 123.986 179.344 123.986 180.055V185H123.031V180.529C123.031 180.162 123.02 179.912 122.996 179.779C122.973 179.643 122.926 179.539 122.855 179.469C122.785 179.398 122.709 179.363 122.627 179.363C122.424 179.363 122.205 179.52 121.971 179.832C121.74 180.141 121.504 180.654 121.262 181.373V185H120.348V180.535C120.348 179.957 120.291 179.617 120.178 179.516C120.064 179.414 119.963 179.363 119.873 179.363C119.674 179.363 119.459 179.537 119.229 179.885C119.002 180.232 118.785 180.678 118.578 181.221V185H117.623ZM128.018 185.182C127.08 185.182 126.33 184.855 125.768 184.203C125.205 183.547 124.924 182.721 124.924 181.725C124.924 180.729 125.205 179.904 125.768 179.252C126.33 178.6 127.08 178.273 128.018 178.273C128.951 178.273 129.699 178.6 130.262 179.252C130.824 179.904 131.105 180.729 131.105 181.725C131.105 182.721 130.824 183.547 130.262 184.203C129.699 184.855 128.951 185.182 128.018 185.182ZM128.018 184.273C128.6 184.273 129.062 184.047 129.406 183.594C129.75 183.141 129.922 182.518 129.922 181.725C129.922 180.936 129.75 180.314 129.406 179.861C129.062 179.408 128.6 179.182 128.018 179.182C127.432 179.182 126.967 179.408 126.623 179.861C126.279 180.314 126.107 180.936 126.107 181.725C126.107 182.518 126.279 183.141 126.623 183.594C126.967 184.047 127.432 184.273 128.018 184.273Z" fill="black"/>
<path d="M136.9 167.529C136.568 168.076 136.168 168.488 135.699 168.766C135.234 169.043 134.807 169.182 134.416 169.182C133.869 169.182 133.377 168.945 132.939 168.473C132.506 168 132.289 167.283 132.289 166.322C132.289 165.564 132.434 164.889 132.723 164.295C133.012 163.697 133.398 163.227 133.883 162.883C134.367 162.535 134.967 162.361 135.682 162.361C135.889 162.361 136.201 162.383 136.619 162.426C136.682 162.434 136.775 162.443 136.9 162.455V159.543H137.996V169H136.9V167.529ZM136.9 166.234V163.428C136.514 163.326 136.154 163.275 135.822 163.275C135.15 163.275 134.59 163.535 134.141 164.055C133.695 164.574 133.473 165.281 133.473 166.176C133.473 166.824 133.594 167.314 133.836 167.646C134.082 167.975 134.361 168.139 134.674 168.139C135.014 168.139 135.389 167.967 135.799 167.623C136.209 167.279 136.576 166.816 136.9 166.234ZM145.121 162.455V169H144.031V167.564C143.68 168.104 143.289 168.508 142.859 168.777C142.43 169.047 142 169.182 141.57 169.182C141.188 169.182 140.836 169.08 140.516 168.877C140.199 168.67 139.979 168.4 139.854 168.068C139.729 167.732 139.666 167.08 139.666 166.111V162.455H140.756V166.246C140.756 166.875 140.785 167.291 140.844 167.494C140.906 167.693 141.018 167.857 141.178 167.986C141.342 168.115 141.518 168.18 141.705 168.18C142.088 168.18 142.498 168 142.936 167.641C143.377 167.277 143.742 166.82 144.031 166.27V162.455H145.121ZM148.701 169V160.457H146.744V159.543H149.791V168.092H151.836V169H148.701ZM159.594 168.566C158.723 168.98 157.898 169.188 157.121 169.188C156.531 169.188 156.004 169.041 155.539 168.748C155.074 168.455 154.701 168.037 154.42 167.494C154.143 166.947 154.004 166.363 154.004 165.742C154.004 165.145 154.137 164.57 154.402 164.02C154.668 163.469 155.039 163.041 155.516 162.736C155.992 162.428 156.523 162.273 157.109 162.273C157.887 162.273 158.51 162.551 158.979 163.105C159.451 163.66 159.688 164.516 159.688 165.672V165.906H155.176C155.176 166.359 155.27 166.773 155.457 167.148C155.648 167.523 155.898 167.805 156.207 167.992C156.516 168.18 156.867 168.273 157.262 168.273C157.965 168.273 158.742 168.039 159.594 167.57V168.566ZM155.24 165.092H158.504V164.934C158.504 164.398 158.373 163.973 158.111 163.656C157.85 163.34 157.5 163.182 157.062 163.182C156.621 163.182 156.238 163.344 155.914 163.668C155.594 163.988 155.369 164.463 155.24 165.092ZM136.9 183.529C136.568 184.076 136.168 184.488 135.699 184.766C135.234 185.043 134.807 185.182 134.416 185.182C133.869 185.182 133.377 184.945 132.939 184.473C132.506 184 132.289 183.283 132.289 182.322C132.289 181.564 132.434 180.889 132.723 180.295C133.012 179.697 133.398 179.227 133.883 178.883C134.367 178.535 134.967 178.361 135.682 178.361C135.889 178.361 136.201 178.383 136.619 178.426C136.682 178.434 136.775 178.443 136.9 178.455V175.543H137.996V185H136.9V183.529ZM136.9 182.234V179.428C136.514 179.326 136.154 179.275 135.822 179.275C135.15 179.275 134.59 179.535 134.141 180.055C133.695 180.574 133.473 181.281 133.473 182.176C133.473 182.824 133.594 183.314 133.836 183.646C134.082 183.975 134.361 184.139 134.674 184.139C135.014 184.139 135.389 183.967 135.799 183.623C136.209 183.279 136.576 182.816 136.9 182.234ZM145.121 178.455V185H144.031V183.564C143.68 184.104 143.289 184.508 142.859 184.777C142.43 185.047 142 185.182 141.57 185.182C141.188 185.182 140.836 185.08 140.516 184.877C140.199 184.67 139.979 184.4 139.854 184.068C139.729 183.732 139.666 183.08 139.666 182.111V178.455H140.756V182.246C140.756 182.875 140.785 183.291 140.844 183.494C140.906 183.693 141.018 183.857 141.178 183.986C141.342 184.115 141.518 184.18 141.705 184.18C142.088 184.18 142.498 184 142.936 183.641C143.377 183.277 143.742 182.82 144.031 182.27V178.455H145.121ZM148.701 185V176.457H146.744V175.543H149.791V184.092H151.836V185H148.701ZM159.594 184.566C158.723 184.98 157.898 185.188 157.121 185.188C156.531 185.188 156.004 185.041 155.539 184.748C155.074 184.455 154.701 184.037 154.42 183.494C154.143 182.947 154.004 182.363 154.004 181.742C154.004 181.145 154.137 180.57 154.402 180.02C154.668 179.469 155.039 179.041 155.516 178.736C155.992 178.428 156.523 178.273 157.109 178.273C157.887 178.273 158.51 178.551 158.979 179.105C159.451 179.66 159.688 180.516 159.688 181.672V181.906H155.176C155.176 182.359 155.27 182.773 155.457 183.148C155.648 183.523 155.898 183.805 156.207 183.992C156.516 184.18 156.867 184.273 157.262 184.273C157.965 184.273 158.742 184.039 159.594 183.57V184.566ZM155.24 181.092H158.504V180.934C158.504 180.398 158.373 179.973 158.111 179.656C157.85 179.34 157.5 179.182 157.062 179.182C156.621 179.182 156.238 179.344 155.914 179.668C155.594 179.988 155.369 180.463 155.24 181.092ZM162.506 181.139V185H161.322V175.906H163.754C164.547 175.906 165.131 175.988 165.506 176.152C165.881 176.312 166.17 176.557 166.373 176.885C166.58 177.213 166.684 177.566 166.684 177.945C166.684 178.297 166.615 178.65 166.479 179.006C166.342 179.361 166.152 179.68 165.91 179.961C165.672 180.238 165.326 180.502 164.873 180.752L167.504 185H166.098L163.689 181.139H162.506ZM162.506 180.225H164.164C164.535 180.021 164.811 179.814 164.99 179.604C165.174 179.393 165.312 179.168 165.406 178.93C165.5 178.691 165.547 178.453 165.547 178.215C165.547 177.789 165.391 177.451 165.078 177.201C164.77 176.947 164.207 176.82 163.391 176.82H162.506V180.225ZM174.008 184.566C173.137 184.98 172.312 185.188 171.535 185.188C170.945 185.188 170.418 185.041 169.953 184.748C169.488 184.455 169.115 184.037 168.834 183.494C168.557 182.947 168.418 182.363 168.418 181.742C168.418 181.145 168.551 180.57 168.816 180.02C169.082 179.469 169.453 179.041 169.93 178.736C170.406 178.428 170.938 178.273 171.523 178.273C172.301 178.273 172.924 178.551 173.393 179.105C173.865 179.66 174.102 180.516 174.102 181.672V181.906H169.59C169.59 182.359 169.684 182.773 169.871 183.148C170.062 183.523 170.312 183.805 170.621 183.992C170.93 184.18 171.281 184.273 171.676 184.273C172.379 184.273 173.156 184.039 174.008 183.57V184.566ZM169.654 181.092H172.918V180.934C172.918 180.398 172.787 179.973 172.525 179.656C172.264 179.34 171.914 179.182 171.477 179.182C171.035 179.182 170.652 179.344 170.328 179.668C170.008 179.988 169.783 180.463 169.654 181.092ZM175.848 184.654V183.5C176.285 183.785 176.748 183.986 177.236 184.104C177.725 184.217 178.139 184.273 178.479 184.273C179.029 184.273 179.426 184.186 179.668 184.01C179.91 183.83 180.031 183.607 180.031 183.342C180.031 183.166 179.975 183.016 179.861 182.891C179.748 182.766 179.467 182.611 179.018 182.428L178.643 182.275L177.887 181.977C177.074 181.66 176.562 181.367 176.352 181.098C176.137 180.832 176.029 180.508 176.029 180.125C176.029 179.586 176.236 179.143 176.65 178.795C177.068 178.447 177.744 178.273 178.678 178.273C179.377 178.273 180.039 178.375 180.664 178.578V179.568C179.945 179.311 179.27 179.182 178.637 179.182C178.176 179.182 177.814 179.264 177.553 179.428C177.295 179.588 177.166 179.789 177.166 180.031C177.166 180.266 177.279 180.453 177.506 180.594C177.729 180.734 178.092 180.896 178.596 181.08L179.334 181.35C180.01 181.596 180.484 181.863 180.758 182.152C181.031 182.441 181.168 182.803 181.168 183.236C181.168 183.803 180.949 184.27 180.512 184.637C180.078 185 179.383 185.182 178.426 185.182C177.59 185.182 176.73 185.006 175.848 184.654ZM185.674 185.182C184.736 185.182 183.986 184.855 183.424 184.203C182.861 183.547 182.58 182.721 182.58 181.725C182.58 180.729 182.861 179.904 183.424 179.252C183.986 178.6 184.736 178.273 185.674 178.273C186.607 178.273 187.355 178.6 187.918 179.252C188.48 179.904 188.762 180.729 188.762 181.725C188.762 182.721 188.48 183.547 187.918 184.203C187.355 184.855 186.607 185.182 185.674 185.182ZM185.674 184.273C186.256 184.273 186.719 184.047 187.062 183.594C187.406 183.141 187.578 182.518 187.578 181.725C187.578 180.936 187.406 180.314 187.062 179.861C186.719 179.408 186.256 179.182 185.674 179.182C185.088 179.182 184.623 179.408 184.279 179.861C183.936 180.314 183.764 180.936 183.764 181.725C183.764 182.518 183.936 183.141 184.279 183.594C184.623 184.047 185.088 184.273 185.674 184.273ZM191.943 185V176.457H189.986V175.543H193.033V184.092H195.078V185H191.943ZM202.777 178.455V185H201.688V183.564C201.336 184.104 200.945 184.508 200.516 184.777C200.086 185.047 199.656 185.182 199.227 185.182C198.844 185.182 198.492 185.08 198.172 184.877C197.855 184.67 197.635 184.4 197.51 184.068C197.385 183.732 197.322 183.08 197.322 182.111V178.455H198.412V182.246C198.412 182.875 198.441 183.291 198.5 183.494C198.562 183.693 198.674 183.857 198.834 183.986C198.998 184.115 199.174 184.18 199.361 184.18C199.744 184.18 200.154 184 200.592 183.641C201.033 183.277 201.398 182.82 201.688 182.27V178.455H202.777ZM210.072 184.736C209.561 184.951 209.189 185.078 208.959 185.117C208.729 185.16 208.506 185.182 208.291 185.182C207.834 185.182 207.416 185.094 207.037 184.918C206.658 184.742 206.371 184.482 206.176 184.139C205.984 183.795 205.889 183.264 205.889 182.545V179.908H204.254V179H205.889V176.363H206.979V179H209.891V179.908H206.979V182.527C206.979 183.055 207.041 183.428 207.166 183.646C207.291 183.861 207.457 184.02 207.664 184.121C207.875 184.223 208.123 184.273 208.408 184.273C208.936 184.273 209.49 184.107 210.072 183.775V184.736ZM213.641 185V179.363H211.824V178.455H214.73V184.092H216.553V185H213.641ZM213.459 176.094C213.459 175.848 213.543 175.664 213.711 175.543C213.879 175.422 214.037 175.361 214.186 175.361C214.338 175.361 214.498 175.422 214.666 175.543C214.834 175.664 214.918 175.848 214.918 176.094C214.918 176.336 214.834 176.518 214.666 176.639C214.498 176.76 214.338 176.82 214.186 176.82C214.037 176.82 213.879 176.76 213.711 176.639C213.543 176.518 213.459 176.336 213.459 176.094ZM221.709 185.182C220.771 185.182 220.021 184.855 219.459 184.203C218.896 183.547 218.615 182.721 218.615 181.725C218.615 180.729 218.896 179.904 219.459 179.252C220.021 178.6 220.771 178.273 221.709 178.273C222.643 178.273 223.391 178.6 223.953 179.252C224.516 179.904 224.797 180.729 224.797 181.725C224.797 182.721 224.516 183.547 223.953 184.203C223.391 184.855 222.643 185.182 221.709 185.182ZM221.709 184.273C222.291 184.273 222.754 184.047 223.098 183.594C223.441 183.141 223.613 182.518 223.613 181.725C223.613 180.936 223.441 180.314 223.098 179.861C222.754 179.408 222.291 179.182 221.709 179.182C221.123 179.182 220.658 179.408 220.314 179.861C219.971 180.314 219.799 180.936 219.799 181.725C219.799 182.518 219.971 183.141 220.314 183.594C220.658 184.047 221.123 184.273 221.709 184.273ZM226.221 185V178.455H227.311V179.885C227.623 179.381 228 178.986 228.441 178.701C228.883 178.416 229.324 178.273 229.766 178.273C230.152 178.273 230.504 178.377 230.82 178.584C231.137 178.787 231.357 179.055 231.482 179.387C231.611 179.719 231.676 180.371 231.676 181.344V185H230.586V181.209C230.586 180.58 230.555 180.166 230.492 179.967C230.434 179.764 230.322 179.598 230.158 179.469C229.998 179.34 229.822 179.275 229.631 179.275C229.248 179.275 228.836 179.457 228.395 179.82C227.957 180.184 227.596 180.639 227.311 181.186V185H226.221Z" fill="#A5A5A5"/>
<g opacity="0.8" clip-path="url(#clip2)">
<path d="M21.5181 59.5V42.5H31.0445L35.557 47.5V59.5H21.5181Z" stroke="#E5A604" stroke-width="1.33" stroke-linejoin="bevel"/>
<path d="M21.518 46.5H17.5068V63.5H31.5458V60" stroke="#E5A604" stroke-width="1.33" stroke-linejoin="bevel"/>
<path d="M30.0415 43V48H35.5568" stroke="#E5A604" stroke-width="1.33"/>
</g>
<path d="M2 33.5V72.5" stroke="#F9B715"/>
<line x1="102.5" y1="140" x2="102.5" y2="154" stroke="#E23D1E" stroke-opacity="0.8"/>
<path d="M103 156L103 191" stroke="#183F66" stroke-opacity="0.8" stroke-width="3"/>
<defs>
<clipPath id="clip0">
<rect width="24.0668" height="24" fill="white" transform="translate(14 122)"/>
</clipPath>
<clipPath id="clip1">
<rect width="24.0668" height="24" fill="white" transform="translate(14 82)"/>
</clipPath>
<clipPath id="clip2">
<rect width="24.0668" height="24" fill="white" transform="translate(15 41)"/>
</clipPath>
</defs>
</svg>
